<svg width="47" height="47" viewBox="0 0 47 47" fill="none" xmlns="http://www.w3.org/2000/svg">
<g clip-path="url(#clip0_20_30)">
<path d="M33.0567 13.0557C33.0567 15.3708 31.1734 17.255 28.8574 17.255H24.5232V8.85628H28.8574C31.1734 8.85628 33.0567 10.7405 33.0567 13.0557Z" fill="white"/>
<path d="M28.8574 19.3006H28.7226C26.4066 19.3006 24.5233 21.1848 24.5233 23.5C24.5233 25.8161 26.4066 27.6994 28.7226 27.6994H28.8574C31.1735 27.6994 33.0568 25.8161 33.0568 23.5C33.0568 21.1848 31.1735 19.3006 28.8574 19.3006ZM18.1426 8.85628C15.8265 8.85628 13.9432 10.7405 13.9432 13.0557C13.9432 15.3708 15.8265 17.255 18.1426 17.255H22.4767V8.85628H18.1426ZM18.1426 8.85628C15.8265 8.85628 13.9432 10.7405 13.9432 13.0557C13.9432 15.3708 15.8265 17.255 18.1426 17.255H22.4767V8.85628H18.1426ZM28.8574 19.3006H28.7226C26.4066 19.3006 24.5233 21.1848 24.5233 23.5C24.5233 25.8161 26.4066 27.6994 28.7226 27.6994H28.8574C31.1735 27.6994 33.0568 25.8161 33.0568 23.5C33.0568 21.1848 31.1735 19.3006 28.8574 19.3006ZM18.1426 19.3006C15.8265 19.3006 13.9432 21.1848 13.9432 23.5C13.9432 25.8161 15.8265 27.6994 18.1426 27.6994H22.4767V19.3006H18.1426ZM18.1426 8.85628C15.8265 8.85628 13.9432 10.7405 13.9432 13.0557C13.9432 15.3708 15.8265 17.255 18.1426 17.255H22.4767V8.85628H18.1426ZM18.1426 8.85628C15.8265 8.85628 13.9432 10.7405 13.9432 13.0557C13.9432 15.3708 15.8265 17.255 18.1426 17.255H22.4767V8.85628H18.1426ZM18.1426 19.3006C15.8265 19.3006 13.9432 21.1848 13.9432 23.5C13.9432 25.8161 15.8265 27.6994 18.1426 27.6994H22.4767V19.3006H18.1426ZM28.8574 19.3006H28.7226C26.4066 19.3006 24.5233 21.1848 24.5233 23.5C24.5233 25.8161 26.4066 27.6994 28.7226 27.6994H28.8574C31.1735 27.6994 33.0568 25.8161 33.0568 23.5C33.0568 21.1848 31.1735 19.3006 28.8574 19.3006ZM28.8574 19.3006H28.7226C26.4066 19.3006 24.5233 21.1848 24.5233 23.5C24.5233 25.8161 26.4066 27.6994 28.7226 27.6994H28.8574C31.1735 27.6994 33.0568 25.8161 33.0568 23.5C33.0568 21.1848 31.1735 19.3006 28.8574 19.3006ZM13.9432 33.9443C13.9432 36.2595 15.8421 38.1437 18.1756 38.1437C20.5476 38.1437 22.4767 36.2292 22.4767 33.8765V29.745H18.1426C15.8265 29.745 13.9432 31.6292 13.9432 33.9443ZM13.9432 23.5C13.9432 25.8161 15.8265 27.6994 18.1426 27.6994H22.4767V19.3006H18.1426C15.8265 19.3006 13.9432 21.1848 13.9432 23.5ZM13.9432 13.0557C13.9432 15.3708 15.8265 17.255 18.1426 17.255H22.4767V8.85628H18.1426C15.8265 8.85628 13.9432 10.7405 13.9432 13.0557ZM41.9213 0H5.07868C2.2739 0 0 2.2739 0 5.07868V41.9213C0 44.7261 2.2739 47 5.07868 47H41.9213C44.7261 47 47 44.7261 47 41.9213V5.07868C47 2.2739 44.7261 0 41.9213 0ZM35.1024 23.5C35.1024 26.9439 32.3013 29.745 28.8574 29.745H28.7226C27.1071 29.745 25.6327 29.1279 24.5233 28.1184V33.8765C24.5233 37.357 21.6754 40.1893 18.1756 40.1893C14.7134 40.1893 11.8976 37.3882 11.8976 33.9443C11.8976 31.7621 13.0217 29.8385 14.7217 28.7226C13.0217 27.6059 11.8976 25.6822 11.8976 23.5C11.8976 21.3187 13.0217 19.3951 14.7217 18.2783C13.0217 17.1615 11.8976 15.2379 11.8976 13.0557C11.8976 9.6118 14.6987 6.81069 18.1426 6.81069H28.8574C32.3013 6.81069 35.1024 9.6118 35.1024 13.0557C35.1024 15.2379 33.9783 17.1615 32.2783 18.2783C33.9783 19.3951 35.1024 21.3187 35.1024 23.5ZM28.8574 19.3006H28.7226C26.4066 19.3006 24.5233 21.1848 24.5233 23.5C24.5233 25.8161 26.4066 27.6994 28.7226 27.6994H28.8574C31.1735 27.6994 33.0568 25.8161 33.0568 23.5C33.0568 21.1848 31.1735 19.3006 28.8574 19.3006ZM13.9432 33.9443C13.9432 36.2595 15.8421 38.1437 18.1756 38.1437C20.5476 38.1437 22.4767 36.2292 22.4767 33.8765V29.745H18.1426C15.8265 29.745 13.9432 31.6292 13.9432 33.9443ZM13.9432 23.5C13.9432 25.8161 15.8265 27.6994 18.1426 27.6994H22.4767V19.3006H18.1426C15.8265 19.3006 13.9432 21.1848 13.9432 23.5ZM13.9432 13.0557C13.9432 15.3708 15.8265 17.255 18.1426 17.255H22.4767V8.85628H18.1426C15.8265 8.85628 13.9432 10.7405 13.9432 13.0557ZM18.1426 8.85628C15.8265 8.85628 13.9432 10.7405 13.9432 13.0557C13.9432 15.3708 15.8265 17.255 18.1426 17.255H22.4767V8.85628H18.1426ZM18.1426 19.3006C15.8265 19.3006 13.9432 21.1848 13.9432 23.5C13.9432 25.8161 15.8265 27.6994 18.1426 27.6994H22.4767V19.3006H18.1426ZM18.1426 29.745C15.8265 29.745 13.9432 31.6292 13.9432 33.9443C13.9432 36.2595 15.8421 38.1437 18.1756 38.1437C20.5476 38.1437 22.4767 36.2292 22.4767 33.8765V29.745H18.1426ZM28.8574 19.3006H28.7226C26.4066 19.3006 24.5233 21.1848 24.5233 23.5C24.5233 25.8161 26.4066 27.6994 28.7226 27.6994H28.8574C31.1735 27.6994 33.0568 25.8161 33.0568 23.5C33.0568 21.1848 31.1735 19.3006 28.8574 19.3006ZM28.8574 19.3006H28.7226C26.4066 19.3006 24.5233 21.1848 24.5233 23.5C24.5233 25.8161 26.4066 27.6994 28.7226 27.6994H28.8574C31.1735 27.6994 33.0568 25.8161 33.0568 23.5C33.0568 21.1848 31.1735 19.3006 28.8574 19.3006ZM18.1426 19.3006C15.8265 19.3006 13.9432 21.1848 13.9432 23.5C13.9432 25.8161 15.8265 27.6994 18.1426 27.6994H22.4767V19.3006H18.1426ZM18.1426 8.85628C15.8265 8.85628 13.9432 10.7405 13.9432 13.0557C13.9432 15.3708 15.8265 17.255 18.1426 17.255H22.4767V8.85628H18.1426ZM18.1426 8.85628C15.8265 8.85628 13.9432 10.7405 13.9432 13.0557C13.9432 15.3708 15.8265 17.255 18.1426 17.255H22.4767V8.85628H18.1426ZM18.1426 19.3006C15.8265 19.3006 13.9432 21.1848 13.9432 23.5C13.9432 25.8161 15.8265 27.6994 18.1426 27.6994H22.4767V19.3006H18.1426ZM28.8574 19.3006H28.7226C26.4066 19.3006 24.5233 21.1848 24.5233 23.5C24.5233 25.8161 26.4066 27.6994 28.7226 27.6994H28.8574C31.1735 27.6994 33.0568 25.8161 33.0568 23.5C33.0568 21.1848 31.1735 19.3006 28.8574 19.3006ZM18.1426 8.85628C15.8265 8.85628 13.9432 10.7405 13.9432 13.0557C13.9432 15.3708 15.8265 17.255 18.1426 17.255H22.4767V8.85628H18.1426ZM18.1426 8.85628C15.8265 8.85628 13.9432 10.7405 13.9432 13.0557C13.9432 15.3708 15.8265 17.255 18.1426 17.255H22.4767V8.85628H18.1426ZM28.8574 19.3006H28.7226C26.4066 19.3006 24.5233 21.1848 24.5233 23.5C24.5233 25.8161 26.4066 27.6994 28.7226 27.6994H28.8574C31.1735 27.6994 33.0568 25.8161 33.0568 23.5C33.0568 21.1848 31.1735 19.3006 28.8574 19.3006Z" fill="white"/>
</g>
<defs>
<clipPath id="clip0_20_30">
<rect width="47" height="47" fill="white"/>
</clipPath>
</defs>
</svg>
