<svg width="46" height="45" viewBox="0 0 46 45" fill="none" xmlns="http://www.w3.org/2000/svg">
<circle cx="34" cy="14" r="11" fill="#8750F7"/>
<path d="M45.2999 38.9621C43.8124 36.8249 41.6304 35.269 39.1251 34.559C39.6605 33.9674 40.0127 33.2333 40.1391 32.4455C40.2656 31.6577 40.1607 30.8502 39.8373 30.1209C39.514 29.3915 38.9859 28.7716 38.3173 28.3363C37.6486 27.9011 36.868 27.6692 36.0702 27.6687C35.2723 27.6682 34.4915 27.8992 33.8223 28.3337C33.1531 28.7682 32.6244 29.3874 32.3001 30.1164C31.9759 30.8454 31.8701 31.6528 31.9956 32.4407C32.1211 33.2286 32.4725 33.9632 33.0071 34.5554C31.9271 34.8601 30.8992 35.3261 29.9582 35.9376C29.758 36.0675 29.6177 36.2716 29.568 36.505C29.5183 36.7384 29.5634 36.9819 29.6933 37.1821C29.8232 37.3822 30.0273 37.5226 30.2607 37.5723C30.4941 37.6219 30.7377 37.5769 30.9379 37.447C32.9029 36.173 35.2715 35.6755 37.583 36.0512C39.8945 36.4269 41.9837 37.6489 43.4441 39.4796C42.5268 40.6294 41.3533 41.5488 40.0173 42.1643C38.6814 42.7799 37.22 43.0745 35.75 43.0246C34.2799 42.9747 32.8418 42.5818 31.5507 41.8772C30.2595 41.1725 29.151 40.1757 28.3137 38.9664C28.2318 38.8522 28.1239 38.7592 27.9989 38.6951C27.8739 38.6309 27.7354 38.5975 27.5949 38.5977C27.5892 38.5926 27.5834 38.5855 27.5777 38.5811H18.8808C17.4048 36.6396 15.3383 35.2296 12.9921 34.5633C13.5276 33.9716 13.88 33.2372 14.0063 32.4492C14.1327 31.6612 14.0277 30.8535 13.704 30.124C13.3804 29.3945 12.852 28.7746 12.1829 28.3395C11.5139 27.9044 10.733 27.6728 9.9349 27.6728C9.13683 27.6728 8.3559 27.9044 7.68687 28.3395C7.01783 28.7746 6.48943 29.3945 6.16576 30.124C5.8421 30.8535 5.73708 31.6612 5.86345 32.4492C5.98982 33.2372 6.34215 33.9716 6.8777 34.5633C4.37243 35.2733 2.19047 36.8292 0.702915 38.9664C0.598301 39.1171 0.542236 39.2961 0.542236 39.4796C0.542236 39.663 0.598301 39.8421 0.702915 39.9928C2.37239 42.4009 4.91686 44.0613 7.79341 44.6196C10.67 45.178 13.6508 44.5901 16.1 42.9813C16.1985 42.9164 16.2833 42.8328 16.3495 42.7351C16.4157 42.6374 16.462 42.5277 16.4858 42.4121C16.5096 42.2966 16.5104 42.1775 16.4882 42.0616C16.4659 41.9457 16.4211 41.8354 16.3562 41.7368C16.2913 41.6383 16.2077 41.5535 16.11 41.4873C16.0123 41.4211 15.9026 41.3747 15.787 41.351C15.6715 41.3272 15.5523 41.3264 15.4365 41.3486C15.3206 41.3708 15.2102 41.4157 15.1117 41.4806C13.1459 42.7712 10.7689 43.281 8.44668 42.9101C6.1245 42.5391 4.02462 41.3141 2.55873 39.4753C3.47622 38.3257 4.64977 37.4065 5.98568 36.7912C7.32159 36.1759 8.78286 35.8814 10.2528 35.9312C11.7228 35.9811 13.1608 36.3739 14.4519 37.0784C15.7431 37.7828 16.8516 38.7794 17.6891 39.9885C17.7714 40.1031 17.8799 40.1964 18.0055 40.2607C18.1312 40.3249 18.2704 40.3583 18.4115 40.3579L18.4266 40.3737H27.1234C28.1946 41.788 29.5857 42.9284 31.1828 43.7012C32.7798 44.4741 34.5373 44.8574 36.3111 44.8198C38.0849 44.7822 39.8245 44.3248 41.3874 43.485C42.9502 42.6452 44.2918 41.4469 45.3021 39.9885C45.4064 39.8375 45.4621 39.6584 45.4617 39.4749C45.4613 39.2915 45.4048 39.1125 45.2999 38.9621ZM36.0683 34.1285C35.6081 34.1285 35.1583 33.992 34.7757 33.7364C34.3931 33.4807 34.0949 33.1174 33.9188 32.6922C33.7427 32.2671 33.6966 31.7993 33.7864 31.348C33.8762 30.8967 34.0978 30.4821 34.4231 30.1567C34.7485 29.8314 35.1631 29.6098 35.6144 29.52C36.0657 29.4302 36.5335 29.4763 36.9586 29.6524C37.3838 29.8285 37.7471 30.1267 38.0028 30.5093C38.2584 30.8919 38.3949 31.3417 38.3949 31.8019C38.3941 32.4187 38.1488 33.01 37.7126 33.4462C37.2764 33.8824 36.6851 34.1277 36.0683 34.1285ZM9.93238 34.1285C9.47223 34.1285 9.0224 33.992 8.6398 33.7364C8.25719 33.4807 7.95899 33.1174 7.78289 32.6922C7.6068 32.2671 7.56072 31.7993 7.6505 31.348C7.74027 30.8967 7.96185 30.4821 8.28723 30.1567C8.61261 29.8314 9.02717 29.6098 9.47849 29.52C9.9298 29.4302 10.3976 29.4763 10.8227 29.6524C11.2479 29.8285 11.6112 30.1267 11.8669 30.5093C12.1225 30.8919 12.259 31.3417 12.259 31.8019C12.2582 32.4188 12.0127 33.0103 11.5764 33.4465C11.1401 33.8826 10.5493 34.1279 9.93238 34.1285Z" fill="#8750F7"/>
<path d="M12.2849 15.5481C12.1262 16.0307 12.1066 16.5482 12.2284 17.0414C12.3502 17.5346 12.6084 17.9836 12.9735 18.3368L15.6652 20.9603C15.7726 21.0648 15.8529 21.1939 15.8992 21.3364C15.9455 21.4789 15.9565 21.6305 15.9311 21.7782L15.2951 25.4841C15.2094 25.9844 15.2654 26.4986 15.4567 26.9687C15.6481 27.4388 15.9671 27.846 16.3778 28.1443C16.7884 28.4426 17.2743 28.62 17.7806 28.6566C18.2868 28.6932 18.7932 28.5874 19.2424 28.3512L22.5688 26.6017C22.7017 26.5316 22.8498 26.495 23.0001 26.495C23.1503 26.495 23.2984 26.5316 23.4313 26.6017L26.7591 28.3519C27.2083 28.5883 27.7146 28.6943 28.2209 28.6579C28.7272 28.6215 29.2132 28.4441 29.6239 28.1459C30.0346 27.8476 30.3537 27.4404 30.545 26.9703C30.7363 26.5001 30.7923 25.9858 30.7065 25.4855L30.069 21.7782C30.0436 21.6307 30.0545 21.4792 30.1007 21.3369C30.1469 21.1945 30.227 21.0655 30.3342 20.961L33.0273 18.3361C33.3906 17.9816 33.6475 17.5326 33.769 17.0398C33.8904 16.5469 33.8716 16.0299 33.7145 15.5473C33.5575 15.0646 33.2686 14.6355 32.8804 14.3084C32.4922 13.9814 32.0203 13.7694 31.518 13.6966L27.7984 13.1532C27.6505 13.132 27.5099 13.075 27.3888 12.9874C27.2678 12.8998 27.1698 12.784 27.1034 12.6501L25.4395 9.27914C25.2149 8.82396 24.8675 8.4407 24.4364 8.17271C24.0054 7.90472 23.508 7.7627 23.0004 7.7627C22.4929 7.7627 21.9954 7.90472 21.5644 8.17271C21.1333 8.4407 20.7859 8.82396 20.5613 9.27914L18.8967 12.6501C18.8303 12.784 18.7324 12.8998 18.6113 12.9874C18.4902 13.075 18.3496 13.132 18.2017 13.1532L14.4793 13.6937C13.9763 13.7655 13.5036 13.9775 13.1155 14.3055C12.7274 14.6334 12.4396 15.0641 12.2849 15.5481ZM13.9941 16.1037C14.0454 15.9388 14.1427 15.7921 14.2747 15.6808C14.4066 15.5695 14.5676 15.4983 14.7387 15.4755L18.4604 14.935C18.8969 14.8715 19.3115 14.7028 19.6683 14.4435C20.0252 14.1842 20.3136 13.842 20.5089 13.4465L22.1728 10.0748C22.2492 9.92091 22.3671 9.79142 22.5131 9.70089C22.6591 9.61037 22.8275 9.5624 22.9993 9.5624C23.1712 9.5624 23.3396 9.61037 23.4856 9.70089C23.6316 9.79142 23.7495 9.92091 23.8259 10.0748L25.4898 13.4457C25.685 13.8413 25.9735 14.1835 26.3303 14.4428C26.6872 14.7021 27.1017 14.8708 27.5382 14.9343L31.2592 15.4748C31.4295 15.4996 31.5895 15.5716 31.7211 15.6826C31.8527 15.7935 31.9507 15.9391 32.004 16.1027C32.0573 16.2664 32.0638 16.4417 32.0227 16.6089C31.9817 16.7761 31.8947 16.9284 31.7717 17.0488L29.0785 19.6737C28.7629 19.9815 28.5267 20.3614 28.3903 20.7807C28.254 21.2 28.2216 21.6462 28.2958 22.0808L28.9319 25.7881C28.961 25.9578 28.9421 26.1323 28.8772 26.2918C28.8123 26.4513 28.704 26.5894 28.5647 26.6905C28.4253 26.7917 28.2604 26.8518 28.0887 26.864C27.9169 26.8763 27.7452 26.8402 27.5929 26.7599L24.2658 25.0126C23.8754 24.8075 23.441 24.7003 23.0001 24.7003C22.5591 24.7003 22.1247 24.8075 21.7343 25.0126L18.4065 26.7627C18.2541 26.8428 18.0824 26.8787 17.9107 26.8663C17.739 26.8539 17.5742 26.7937 17.4349 26.6925C17.2956 26.5914 17.1873 26.4533 17.1224 26.2938C17.0575 26.1344 17.0385 25.96 17.0675 25.7903L17.7036 22.0837C17.7778 21.6489 17.7453 21.2026 17.6088 20.7832C17.4723 20.3637 17.236 19.9837 16.9201 19.6759L14.2284 17.0524C14.1022 16.9328 14.013 16.7795 13.9715 16.6107C13.9299 16.4418 13.9378 16.2646 13.9941 16.1001V16.1037Z" fill="#8750F7"/>
<path d="M23 5.21094C23.2383 5.21094 23.4668 5.11628 23.6353 4.94779C23.8038 4.7793 23.8984 4.55078 23.8984 4.3125V1.4375C23.8984 1.19922 23.8038 0.970698 23.6353 0.802208C23.4668 0.633718 23.2383 0.539063 23 0.539062C22.7617 0.539063 22.5332 0.633718 22.3647 0.802208C22.1962 0.970698 22.1016 1.19922 22.1016 1.4375V4.3125C22.1016 4.55078 22.1962 4.7793 22.3647 4.94779C22.5332 5.11628 22.7617 5.21094 23 5.21094Z" fill="#8750F7"/>
<path d="M32.7829 9.26393C32.9009 9.26415 33.0178 9.24102 33.1268 9.19587C33.2359 9.15072 33.3349 9.08445 33.4183 9.00087L35.4516 6.96753C35.6201 6.79901 35.7148 6.57046 35.7148 6.33215C35.7148 6.09384 35.6201 5.86529 35.4516 5.69677C35.2831 5.52826 35.0545 5.43359 34.8162 5.43359C34.5779 5.43359 34.3494 5.52826 34.1809 5.69677L32.1475 7.73012C32.0218 7.85577 31.9362 8.01587 31.9015 8.19017C31.8669 8.36447 31.8847 8.54515 31.9527 8.70933C32.0207 8.87352 32.1359 9.01385 32.2836 9.11257C32.4314 9.21129 32.6052 9.26397 32.7829 9.26393Z" fill="#8750F7"/>
<path d="M36.8359 19.0469H39.7109C39.9492 19.0469 40.1777 18.9522 40.3462 18.7837C40.5147 18.6152 40.6094 18.3867 40.6094 18.1484C40.6094 17.9102 40.5147 17.6816 40.3462 17.5131C40.1777 17.3447 39.9492 17.25 39.7109 17.25H36.8359C36.5977 17.25 36.3691 17.3447 36.2006 17.5131C36.0322 17.6816 35.9375 17.9102 35.9375 18.1484C35.9375 18.3867 36.0322 18.6152 36.2006 18.7837C36.3691 18.9522 36.5977 19.0469 36.8359 19.0469Z" fill="#8750F7"/>
<path d="M6.28906 19.0469H9.16406C9.40234 19.0469 9.63086 18.9522 9.79935 18.7837C9.96784 18.6152 10.0625 18.3867 10.0625 18.1484C10.0625 17.9102 9.96784 17.6816 9.79935 17.5131C9.63086 17.3447 9.40234 17.25 9.16406 17.25H6.28906C6.05078 17.25 5.82226 17.3447 5.65377 17.5131C5.48528 17.6816 5.39063 17.9102 5.39062 18.1484C5.39063 18.3867 5.48528 18.6152 5.65377 18.7837C5.82226 18.9522 6.05078 19.0469 6.28906 19.0469Z" fill="#8750F7"/>
<path d="M12.5781 9.00087C12.6616 9.08431 12.7606 9.1505 12.8697 9.19565C12.9787 9.24081 13.0955 9.26405 13.2135 9.26405C13.3315 9.26405 13.4484 9.24081 13.5574 9.19565C13.6664 9.1505 13.7655 9.08431 13.8489 9.00087C13.9323 8.91743 13.9985 8.81837 14.0437 8.70936C14.0888 8.60034 14.1121 8.48349 14.1121 8.36549C14.1121 8.24749 14.0888 8.13065 14.0437 8.02163C13.9985 7.91261 13.9323 7.81356 13.8489 7.73012L11.8155 5.69677C11.647 5.52826 11.4185 5.43359 11.1802 5.43359C10.9419 5.43359 10.7133 5.52826 10.5448 5.69677C10.3763 5.86529 10.2816 6.09384 10.2816 6.33215C10.2816 6.57046 10.3763 6.79901 10.5448 6.96753L12.5781 9.00087Z" fill="#8750F7"/>
</svg>
