<svg width="47" height="47" viewBox="0 0 47 47" fill="none" xmlns="http://www.w3.org/2000/svg">
<g clip-path="url(#clip0_20_40)">
<path d="M8.32295 0.587502H38.6771C43.2792 0.587502 47 4.3083 47 8.91045V38.0896C47 42.6917 43.2792 46.4126 38.6771 46.4126H8.32295C3.7208 46.4125 0 42.6917 0 38.0896V8.91045C0 4.3083 3.7208 0.587502 8.32295 0.587502Z" fill="white"/>
<path d="M22.7755 28.0825H15.4905L14.0022 32.6846C13.963 32.8608 13.8064 32.9783 13.6301 32.9588H9.94845C9.733 32.9588 9.67425 32.8413 9.733 32.6063L16.0388 14.4525C16.0976 14.2567 16.1563 14.0412 16.2346 13.8062C16.3129 13.395 16.3521 12.9642 16.3521 12.5333C16.3326 12.4354 16.4109 12.3375 16.5088 12.3179H16.5676H21.5809C21.7376 12.3179 21.8159 12.3766 21.8354 12.4746L28.9834 32.6454C29.0421 32.8608 28.9834 32.9587 28.7876 32.9587H24.6946C24.5576 32.9782 24.4204 32.8804 24.3813 32.7432L22.7755 28.0825ZM16.6263 24.1071H21.6005L19.0938 15.9408L16.6263 24.1071Z" fill="#09101A"/>
<path d="M33.2525 15.6667C32.6063 15.6863 31.9796 15.4317 31.5096 14.9813C31.0591 14.4917 30.8241 13.8454 30.8438 13.1796C30.8242 12.5138 31.0788 11.8871 31.5488 11.4366C32.0188 10.9862 32.6455 10.7512 33.2917 10.7512C34.0555 10.7512 34.643 10.9862 35.0738 11.4366C35.5046 11.9066 35.7396 12.5333 35.72 13.1796C35.7396 13.8454 35.5046 14.4916 35.0346 14.9813C34.5842 15.4513 33.9183 15.7058 33.2525 15.6667Z" fill="#09101A"/>
<path d="M31.0592 32.665V17.5858C31.0592 17.39 31.1375 17.3116 31.3138 17.3116H35.1913C35.3675 17.3116 35.4458 17.4096 35.4458 17.5858V32.665C35.4458 32.8805 35.3675 32.9783 35.1913 32.9783H31.353C31.1571 32.9783 31.0592 32.8608 31.0592 32.665Z" fill="#09101A"/>
</g>
<defs>
<clipPath id="clip0_20_40">
<rect width="47" height="47" fill="white"/>
</clipPath>
</defs>
</svg>
