<svg width="47" height="47" viewBox="0 0 47 47" fill="none" xmlns="http://www.w3.org/2000/svg">
<g clip-path="url(#clip0_20_34)">
<path d="M38.6768 0.587494H8.32322C3.72053 0.587494 0 4.30802 0 8.91072V38.0893C0 42.692 3.72053 46.4125 8.32322 46.4125H38.6768C43.2795 46.4125 47 42.692 47 38.0893V8.91072C47 4.30802 43.2795 0.587494 38.6768 0.587494ZM17.077 32.665C17.077 32.8807 16.9787 32.978 16.8025 32.978H12.9645C12.7882 32.978 12.7093 32.8807 12.7093 32.665V12.5725C12.7093 12.3962 12.8075 12.3182 12.9838 12.3182H16.8025C16.92 12.298 17.0375 12.377 17.0568 12.5137C17.077 12.533 17.077 12.5532 17.077 12.5725V32.665ZM34.5643 32.0775C33.5462 32.508 32.4695 32.822 31.3725 33.0175C30.393 33.1937 29.375 33.292 28.357 33.292C26.9075 33.3112 25.458 33.0175 24.1463 32.4107C22.9125 31.8425 21.8945 30.9025 21.1895 29.7468C20.4643 28.5525 20.1118 27.0645 20.1118 25.2818C20.0925 23.8332 20.4643 22.403 21.1895 21.15C21.933 19.8768 23.0107 18.8193 24.3032 18.1143C25.6738 17.3505 27.3188 16.9787 29.2575 16.9787C29.3557 16.9787 29.4925 16.9787 29.6688 16.998C29.845 17.0182 30.0405 17.0182 30.2755 17.0375V10.8495C30.2755 10.7118 30.3343 10.6337 30.472 10.6337H34.4468C34.545 10.6145 34.623 10.6925 34.6432 10.7705C34.6432 10.7907 34.6432 10.81 34.6432 10.81V29.453C34.6432 29.8055 34.6625 30.1975 34.6818 30.628C34.7212 31.0393 34.7405 31.4312 34.7607 31.7645C34.7607 31.9012 34.702 32.0187 34.5643 32.0775ZM29.1005 20.6212C28.3368 20.6212 27.573 20.7782 26.8882 21.1307C26.2218 21.463 25.6545 21.9532 25.223 22.5793C24.7925 23.2062 24.5768 24.048 24.5768 25.067C24.5575 25.7518 24.675 26.4375 24.91 27.0837C25.1055 27.6125 25.3993 28.0825 25.7912 28.4745C26.163 28.827 26.6138 29.1005 27.1232 29.2575C27.652 29.4337 28.2 29.5119 28.748 29.5119C29.0418 29.5119 29.3163 29.4926 29.5705 29.4733C29.8257 29.4926 30.0607 29.4531 30.2755 29.3751V20.7581C30.0993 20.7196 29.923 20.6801 29.7468 20.6608C29.532 20.6405 29.3163 20.6212 29.1005 20.6212Z" fill="white"/>
</g>
<defs>
<clipPath id="clip0_20_34">
<rect width="47" height="47" fill="white"/>
</clipPath>
</defs>
</svg>
