<svg width="47" height="47" viewBox="0 0 47 47" fill="none" xmlns="http://www.w3.org/2000/svg">
<g clip-path="url(#clip0_24_116)">
<path d="M0 0H46.4051V47H0V0Z" fill="white"/>
<path d="M31.1724 36.7189C32.1072 38.2647 33.3233 39.4009 35.4741 39.4009C37.281 39.4009 38.4352 38.4862 38.4352 37.2224C38.4352 35.708 37.2493 35.1716 35.2605 34.2905L34.1704 33.8168C31.0236 32.459 28.9332 30.758 28.9332 27.1622C28.9332 23.8498 31.4251 21.3282 35.3194 21.3282C38.092 21.3282 40.0852 22.3055 41.5215 24.8644L38.1259 27.0727C37.3782 25.7149 36.5716 25.18 35.3194 25.18C34.0422 25.18 33.2327 26.0006 33.2327 27.0727C33.2327 28.3976 34.0429 28.934 35.9138 29.7547L37.004 30.2276C40.709 31.8368 42.8009 33.4773 42.8009 37.1657C42.8009 41.1421 39.7168 43.3205 35.5749 43.3205C31.5252 43.3205 28.9088 41.3659 27.6286 38.804L31.1724 36.7189ZM15.7681 37.1016C16.4531 38.3326 17.0764 39.3733 18.5745 39.3733C20.0072 39.3733 20.911 38.8056 20.911 36.5981V21.5804H25.2717V36.6577C25.2717 41.2309 22.6244 43.3123 18.7602 43.3123C15.2687 43.3123 13.2468 41.4823 12.2185 39.2781L15.7681 37.1016Z" fill="#09101A"/>
</g>
<defs>
<clipPath id="clip0_24_116">
<rect width="46.4051" height="47" fill="white"/>
</clipPath>
</defs>
</svg>
