<svg width="47" height="47" viewBox="0 0 47 47" fill="none" xmlns="http://www.w3.org/2000/svg">
<g clip-path="url(#clip0_20_23)">
<path d="M20.6452 17.6155C20.9648 18.1171 21.1316 18.7179 21.1105 19.348C21.1105 20.21 20.915 20.8755 20.5038 21.3657C19.5961 22.4476 17.9878 22.7555 16.6455 22.7555H15.6082C15.3732 22.7555 15.118 22.7362 14.8445 22.717V16.137C14.9813 16.1168 15.2557 16.0975 15.6468 16.1168C16.0195 16.0975 16.4693 16.0975 16.9788 16.0975C18.3283 16.0975 19.8689 16.3973 20.6452 17.6155Z" fill="white"/>
<path d="M38.6768 0.587494H8.32322C3.72053 0.587494 0 4.30802 0 8.91072V38.0893C0 42.692 3.72053 46.4125 8.32322 46.4125H38.6768C43.2795 46.4125 47 42.692 47 38.0893V8.91072C47 4.30802 43.2795 0.587494 38.6768 0.587494ZM24.205 23.4018C23.422 24.4987 22.325 25.3212 21.0518 25.7912C19.7207 26.2805 18.252 26.4568 16.6455 26.4568C16.1755 26.4568 15.8625 26.4568 15.667 26.4375C15.4705 26.4182 15.197 26.4182 14.8243 26.4182V32.7045C14.8445 32.8412 14.7462 32.9587 14.6095 32.978H10.81C10.653 32.978 10.575 32.9 10.575 32.7237V12.5725C10.575 12.4357 10.6338 12.3568 10.7705 12.3568C11.1038 12.3568 11.4168 12.3568 11.8675 12.3375C12.3375 12.3182 12.8268 12.3182 13.3555 12.298C13.8843 12.2787 14.4525 12.2787 15.0593 12.2595C15.667 12.2393 16.2545 12.2393 16.842 12.2393C18.4475 12.2393 19.7795 12.4357 20.8755 12.847C21.855 13.1793 22.7555 13.7282 23.5 14.4525C24.127 15.0795 24.6163 15.8432 24.9293 16.685C25.223 17.5075 25.38 18.3493 25.38 19.2305C25.38 20.915 24.988 22.3057 24.205 23.4018ZM38.0893 31.02C37.5412 31.803 36.7775 32.4107 35.8963 32.7632C34.937 33.1745 33.762 33.3893 32.352 33.3893C31.4505 33.3893 30.5693 33.3112 29.688 33.135C29.0032 33.0175 28.3175 32.8018 27.6905 32.508C27.5537 32.43 27.4555 32.2932 27.4757 32.1362V28.7287C27.4757 28.67 27.495 28.592 27.5538 28.5525C27.6125 28.513 27.6712 28.5332 27.73 28.5718C28.4937 29.0225 29.297 29.3355 30.158 29.532C30.9025 29.7275 31.6855 29.8257 32.4695 29.8257C33.213 29.8257 33.7418 29.7275 34.0943 29.5512C34.4082 29.4145 34.623 29.0812 34.623 28.7287C34.623 28.4543 34.467 28.2 34.153 27.9457C33.84 27.6905 33.1937 27.3968 32.2345 27.025C31.2357 26.6725 30.315 26.2025 29.453 25.615C28.8463 25.1845 28.3368 24.6162 27.965 23.9507C27.652 23.3237 27.495 22.638 27.5143 21.9532C27.5143 21.1105 27.7493 20.3082 28.1807 19.583C28.67 18.8 29.3943 18.173 30.237 17.782C31.1568 17.312 32.3125 17.0962 33.7032 17.0962C34.5055 17.0962 35.328 17.155 36.1313 17.2725C36.7188 17.3505 37.287 17.5075 37.8157 17.7232C37.8938 17.7425 37.9718 17.8205 38.0112 17.8995C38.0305 17.9775 38.0507 18.0555 38.0507 18.1345V21.3262C38.0507 21.4043 38.0113 21.4832 37.9525 21.5218C37.7763 21.5612 37.678 21.5612 37.6 21.5218C37.0125 21.2087 36.3855 20.993 35.72 20.8562C34.9957 20.6993 34.2705 20.602 33.527 20.602C33.135 20.5818 32.7237 20.6405 32.352 20.7387C32.0968 20.7975 31.882 20.9343 31.7443 21.1307C31.647 21.2868 31.5882 21.4832 31.5882 21.6595C31.5882 21.8357 31.6662 22.012 31.7837 22.168C31.96 22.3837 32.195 22.56 32.4493 22.6968C32.9 22.9318 33.37 23.1475 33.84 23.343C34.8975 23.6955 35.9155 24.1857 36.8555 24.7732C37.5018 25.1845 38.0305 25.7325 38.4032 26.398C38.7163 27.025 38.8732 27.7107 38.853 28.4157C38.8732 29.3355 38.5987 30.2562 38.0893 31.02Z" fill="white"/>
</g>
<defs>
<clipPath id="clip0_20_23">
<rect width="47" height="47" fill="white"/>
</clipPath>
</defs>
</svg>
