<svg width="47" height="47" viewBox="0 0 47 47" fill="none" xmlns="http://www.w3.org/2000/svg">
<g clip-path="url(#clip0_20_65)">
<path d="M38.6768 0.5875H8.32322C3.72053 0.5875 0 4.30803 0 8.91072V38.0893C0 42.692 3.72053 46.4125 8.32322 46.4125H38.6768C43.2795 46.4125 47 42.692 47 38.0893V8.91072C47 4.30803 43.2795 0.5875 38.6768 0.5875ZM25.5562 29.2768L24.988 32.6843C24.988 32.7825 24.9293 32.8605 24.8705 32.9193C24.8118 32.9588 24.753 32.978 24.675 32.978H12.2595C12.0438 32.978 11.9455 32.8605 11.9455 32.6255V12.612C11.9263 12.4743 12.0245 12.3568 12.1612 12.3375H16.0782C16.1755 12.3182 16.293 12.3963 16.293 12.4945V29.0032H25.3405C25.537 29.0032 25.5957 29.1005 25.5562 29.2768ZM37.2282 21.1105C37.2282 21.2675 37.13 21.3263 36.9143 21.3263C35.642 21.2482 34.3687 21.4832 33.213 21.9918C32.822 22.168 32.4493 22.403 32.1555 22.717V32.7045C32.1555 32.9 32.0775 32.978 31.9012 32.978H28.0825C27.9255 32.9982 27.7888 32.9 27.7695 32.743V21.8155C27.7695 21.3455 27.7695 20.8563 27.7493 20.3468C27.73 19.8382 27.73 19.3288 27.7107 18.8193C27.6905 18.3888 27.652 17.9582 27.5932 17.5268C27.573 17.4295 27.6318 17.3313 27.73 17.312C27.7493 17.2918 27.7695 17.2918 27.808 17.312H31.2357C31.4312 17.312 31.5882 17.4488 31.647 17.625C31.725 17.7618 31.7838 17.9188 31.803 18.0757C31.8425 18.2713 31.882 18.487 31.9012 18.6825C31.9205 18.8982 31.9407 19.1332 31.9407 19.3875C32.5282 18.7018 33.2332 18.1345 34.0355 17.703C34.937 17.2138 35.9357 16.9788 36.9537 16.998C37.0905 16.9788 37.208 17.077 37.2282 17.2138V21.1105Z" fill="white"/>
</g>
<defs>
<clipPath id="clip0_20_65">
<rect width="47" height="47" fill="white"/>
</clipPath>
</defs>
</svg>
