<svg width="47" height="47" viewBox="0 0 47 47" fill="none" xmlns="http://www.w3.org/2000/svg">
<g clip-path="url(#clip0_20_58)">
<path d="M21.2483 17.605C21.5614 18.1347 21.7183 18.7414 21.6981 19.3482C21.6981 20.2101 21.5026 20.8756 21.0914 21.3658C20.6609 21.8551 20.1119 22.2268 19.4859 22.4031C18.7607 22.6381 17.997 22.7556 17.2333 22.7556H16.1951C15.9601 22.7556 15.7059 22.7363 15.4314 22.717V16.1363C15.5691 16.1171 15.8426 16.0978 16.2346 16.1171C16.6064 16.0978 17.0571 16.0978 17.5665 16.0978C18.3697 16.0776 19.1527 16.1951 19.8769 16.4888C20.4451 16.7045 20.9151 17.0965 21.2483 17.605Z" fill="white"/>
<path d="M38.6771 0.587479H8.3229C3.7213 0.587479 0 4.30878 0 8.91038V38.0896C0 42.6912 3.7213 46.4125 8.3229 46.4125H38.6771C43.2787 46.4125 47 42.6912 47 38.0896V8.91038C47 4.30878 43.2787 0.587479 38.6771 0.587479ZM24.7924 23.4018C23.0511 25.8398 20.0605 26.4567 17.2333 26.4567C16.7633 26.4567 16.4503 26.4567 16.2538 26.4374C16.0583 26.4181 15.7839 26.4181 15.4121 26.4181V32.7041C15.4314 32.8409 15.3341 32.9584 15.1964 32.9786H11.398C11.241 32.9786 11.163 32.8996 11.163 32.7234V12.5729C11.163 12.4352 11.2217 12.3572 11.3585 12.3572C11.6917 12.3572 12.0047 12.3572 12.4554 12.3379L17.4297 12.2397C19.0352 12.2397 20.3671 12.4352 21.4631 12.8465C23.2953 13.534 24.8237 14.8219 25.5167 16.6853C26.3043 18.8002 26.1235 21.5393 24.7924 23.4018ZM38.1484 21.0519C38.1484 21.2088 38.0502 21.2676 37.8344 21.2676C37.1295 21.2483 36.4052 21.3071 35.7195 21.4631C35.1522 21.5806 34.6033 21.7568 34.0746 21.9918C33.7028 22.1681 33.3503 22.4031 33.0759 22.717V32.7041C33.0759 32.8996 32.9978 32.9786 32.8216 32.9786H28.9635C28.8066 32.9979 28.6698 32.8996 28.6505 32.7436V21.8156C28.6505 21.3456 28.6505 20.8564 28.6303 20.3469C28.611 19.8384 28.611 19.3289 28.5918 18.8195C28.5918 18.3697 28.5523 17.9382 28.5128 17.4885C28.4936 17.3902 28.5523 17.292 28.6505 17.2727C28.6505 17.2526 28.6891 17.2526 28.7093 17.2727H32.1359C32.3323 17.2727 32.4884 17.4095 32.5471 17.5858C32.6059 17.7427 32.6454 17.8997 32.6646 18.0759C32.7041 18.2715 32.7436 18.4872 32.7629 18.6827C32.7821 18.8984 32.8023 19.1334 32.8023 19.3877C33.3898 18.702 34.0948 18.1347 34.8971 17.7033C35.7985 17.1938 36.8357 16.9395 37.8739 16.9395C38.0107 16.9203 38.1282 17.0176 38.1484 17.1553V21.0519Z" fill="white"/>
</g>
<defs>
<clipPath id="clip0_20_58">
<rect width="47" height="47" fill="white"/>
</clipPath>
</defs>
</svg>
