<svg width="47" height="47" viewBox="0 0 47 47" fill="none" xmlns="http://www.w3.org/2000/svg">
<path d="M23.5 19.0938C21.07 19.0938 19.0938 21.07 19.0938 23.5C19.0938 25.93 21.07 27.9062 23.5 27.9062C25.93 27.9062 27.9062 25.93 27.9062 23.5C27.9062 21.07 25.93 19.0938 23.5 19.0938ZM23.5 26.4375C21.88 26.4375 20.5625 25.12 20.5625 23.5C20.5625 21.88 21.88 20.5625 23.5 20.5625C25.12 20.5625 26.4375 21.88 26.4375 23.5C26.4375 25.12 25.12 26.4375 23.5 26.4375Z" fill="white"/>
<path d="M42.5938 32.3125C42.5938 30.6925 41.2763 29.375 39.6563 29.375C39.3963 29.375 39.1481 29.4198 38.908 29.4837C37.6793 27.5332 36.2143 25.5195 34.5494 23.4927C35.2023 22.6966 35.8302 21.8991 36.4265 21.1015C36.7474 21.222 37.0911 21.2969 37.4532 21.2969C39.0732 21.2969 40.3907 19.9794 40.3907 18.3594C40.3907 17.5934 40.0888 16.9009 39.6071 16.3773C42.7061 11.1111 43.4214 7.22184 41.6002 5.40059C40.4876 4.28802 38.6428 4.11691 36.1306 4.86377C35.5945 4.14481 34.7448 3.67188 33.7813 3.67188C32.1613 3.67188 30.8438 4.98934 30.8438 6.60938C30.8438 6.82308 30.8695 7.03091 30.9136 7.23212C30.3077 7.58169 29.6915 7.95916 29.0659 8.36233C27.8255 3.84372 25.9543 0.734375 23.5 0.734375C21.0465 0.734375 19.1753 3.84225 17.9357 8.35939C16.9854 7.74692 16.0498 7.17925 15.1465 6.69309C10.4531 4.16611 7.08308 3.71888 5.40062 5.40059C4.07581 6.72541 4.10225 9.17087 5.43661 12.4726C4.81092 13.0109 4.40628 13.7989 4.40628 14.6875C4.40628 16.3075 5.72375 17.625 7.34378 17.625C7.60375 17.625 7.85197 17.5802 8.09284 17.5163C9.31998 19.4653 10.7836 21.4768 12.4462 23.5015C10.0786 26.3846 8.10312 29.2355 6.69312 31.8542C4.16614 36.5484 3.71891 39.9184 5.40062 41.6001C6.06303 42.2625 6.99789 42.5901 8.17362 42.5901C10.2291 42.5901 13.0264 41.5752 16.3759 39.6056C16.8987 40.0881 17.592 40.3906 18.3594 40.3906C18.3998 40.3906 18.438 40.3803 18.4784 40.3789C19.8091 44.2307 21.5385 46.2656 23.5 46.2656C25.9536 46.2656 27.8248 43.1578 29.0644 38.6406C30.0147 39.2531 30.9503 39.8208 31.8535 40.3069C34.6846 41.8315 37.0346 42.5989 38.8228 42.5989C39.9992 42.5989 40.9326 42.2662 41.5994 41.5994C42.9243 40.2746 42.8978 37.8291 41.5635 34.5274C42.1891 33.9891 42.5938 33.2011 42.5938 32.3125ZM41.125 32.3125C41.125 33.1225 40.4663 33.7812 39.6563 33.7812C38.8463 33.7812 38.1875 33.1225 38.1875 32.3125C38.1875 31.5025 38.8463 30.8438 39.6563 30.8438C40.4663 30.8438 41.125 31.5025 41.125 32.3125ZM37.4532 19.8281C36.6431 19.8281 35.9844 19.1694 35.9844 18.3594C35.9844 17.5494 36.6431 16.8906 37.4532 16.8906C38.2632 16.8906 38.9219 17.5494 38.9219 18.3594C38.9219 19.1694 38.2632 19.8281 37.4532 19.8281ZM33.7813 5.14062C34.5913 5.14062 35.25 5.79936 35.25 6.60938C35.25 7.41939 34.5913 8.07812 33.7813 8.07812C32.9713 8.07812 32.3125 7.41939 32.3125 6.60938C32.3125 5.79936 32.9713 5.14062 33.7813 5.14062ZM31.5855 8.54005C32.1238 9.15252 32.9037 9.54688 33.7813 9.54688C35.4013 9.54688 36.7188 8.22941 36.7188 6.60938C36.7188 6.47866 36.6968 6.35455 36.6806 6.22823C38.5246 5.70316 39.8928 5.76998 40.5618 6.439C41.8065 7.68377 40.962 11.1618 38.3711 15.5834C38.0803 15.4865 37.7756 15.4219 37.4532 15.4219C35.8331 15.4219 34.5157 16.7393 34.5157 18.3594C34.5157 19.0842 34.7896 19.74 35.2265 20.2533C34.7044 20.951 34.1602 21.6479 33.594 22.3448C32.6834 21.2807 31.7192 20.2166 30.7116 19.1606C30.5118 15.8676 30.0859 12.6599 29.4448 9.86633C30.1711 9.38752 30.8849 8.94542 31.5855 8.54005ZM28.1428 36.2488C26.9935 35.4402 25.8243 34.5516 24.6457 33.591C26.1526 32.303 27.6515 30.9231 29.1298 29.4521C28.9168 31.974 28.5746 34.2586 28.1428 36.2488ZM28.2551 28.2551C26.6872 29.823 25.0958 31.2792 23.4971 32.6356C21.9072 31.2836 20.3121 29.8215 18.745 28.2551C18.3991 27.9092 18.062 27.5574 17.7234 27.2071C17.661 25.9881 17.625 24.7506 17.625 23.5C17.625 22.2259 17.6588 20.9928 17.719 19.8017C18.0598 19.4492 18.3954 19.0952 18.7457 18.7449C20.3092 17.1814 21.9064 15.7156 23.5 14.3614C25.0914 15.7142 26.6872 17.177 28.2551 18.7449C28.6032 19.093 28.9418 19.4455 29.2818 19.798C29.3413 20.9899 29.375 22.2244 29.375 23.5C29.375 24.7719 29.342 26.0028 29.2818 27.1917C28.9396 27.5457 28.6076 27.9026 28.2551 28.2551ZM20.2534 35.2265C19.7819 34.8248 19.1878 34.5714 18.5305 34.5332C18.247 32.9323 18.026 31.23 17.8747 29.4565C19.3508 30.9253 20.8526 32.3037 22.3529 33.5874C21.6531 34.1565 20.9532 34.7022 20.2534 35.2265ZM18.8573 10.7513C20.0073 11.5605 21.1765 12.4491 22.3559 13.4104C20.8504 14.6978 19.3457 16.0799 17.8703 17.5479C18.0833 15.0253 18.4255 12.7414 18.8573 10.7513ZM16.1886 25.5724C15.5607 24.8843 14.9504 24.1925 14.3622 23.5C14.9482 22.8112 15.557 22.1223 16.1857 21.4342C16.1666 22.123 16.1563 22.8126 16.1563 23.5C16.1563 24.1947 16.1695 24.885 16.1886 25.5724ZM29.1298 17.5479C27.6515 16.0777 26.1489 14.6978 24.6464 13.4119C25.8243 12.4521 26.9935 11.5642 28.1435 10.7549C28.5753 12.7443 28.9168 15.0268 29.1298 17.5479ZM30.8137 21.4305C31.4401 22.1172 32.0482 22.8067 32.6349 23.4978C32.0482 24.1888 31.4408 24.8777 30.8137 25.5643C30.8335 24.8755 30.8438 24.1866 30.8438 23.5C30.8438 22.8119 30.8335 22.1208 30.8137 21.4305ZM23.5 2.20312C25.0165 2.20312 26.6263 4.81163 27.777 9.21788C26.3766 10.1821 24.9438 11.2668 23.503 12.4499C22.0592 11.2638 20.6264 10.1843 19.223 9.21861C20.3738 4.81163 21.9835 2.20312 23.5 2.20312ZM5.87503 14.6875C5.87503 13.8775 6.53377 13.2188 7.34378 13.2188C8.1538 13.2188 8.81253 13.8775 8.81253 14.6875C8.81253 15.4975 8.1538 16.1562 7.34378 16.1562C6.53377 16.1562 5.87503 15.4975 5.87503 14.6875ZM9.37727 16.7988C9.93245 16.2642 10.2813 15.5173 10.2813 14.6875C10.2813 13.0675 8.96381 11.75 7.34378 11.75C7.14036 11.75 6.94208 11.7713 6.74967 11.811C5.72302 9.22522 5.59744 7.28059 6.4383 6.439C7.56483 5.31247 10.5596 5.89189 14.4496 7.98633C15.4528 8.52683 16.4941 9.15839 17.5575 9.85898C16.9142 12.6562 16.4882 15.8691 16.2885 19.1679C15.2802 20.2254 14.3225 21.2903 13.4105 22.3558C11.869 20.4634 10.5097 18.5878 9.37727 16.7988ZM6.43903 40.561C5.31323 39.4352 5.89119 36.4404 7.98636 32.5497C9.31778 30.0771 11.178 27.3841 13.4038 24.6515C14.3145 25.7156 15.2787 26.7797 16.287 27.8372C16.4331 30.29 16.7041 32.6452 17.0889 34.816C16.1063 35.2919 15.4219 36.2906 15.4219 37.4531C15.4219 37.7755 15.4865 38.0803 15.5835 38.3711C11.1611 40.9612 7.68306 41.8058 6.43903 40.561ZM16.8907 37.4531C16.8907 36.6431 17.5494 35.9844 18.3594 35.9844C19.1694 35.9844 19.8282 36.6431 19.8282 37.4531C19.8282 38.2631 19.1694 38.9219 18.3594 38.9219C17.5494 38.9219 16.8907 38.2631 16.8907 37.4531ZM23.5 44.7969C22.2788 44.7969 20.9459 42.9991 19.8832 39.9522C20.727 39.4352 21.2969 38.5128 21.2969 37.4531C21.2969 37.0903 21.222 36.7474 21.1016 36.4265C21.8998 35.8294 22.6974 35.2015 23.4942 34.5479C24.9394 35.7354 26.3729 36.8157 27.777 37.7814C26.6263 42.1884 25.0165 44.7969 23.5 44.7969ZM40.561 40.561C39.4352 41.6868 36.4397 41.1081 32.5497 39.0137C31.5466 38.4732 30.5052 37.8416 29.4419 37.141C30.0852 34.3416 30.5126 31.125 30.7116 27.8233C31.7155 26.7702 32.679 25.7105 33.5896 24.6449C35.1303 26.5374 36.4897 28.4122 37.6221 30.2004C37.0676 30.7358 36.7188 31.4827 36.7188 32.3125C36.7188 33.9325 38.0363 35.25 39.6563 35.25C39.8597 35.25 40.058 35.2287 40.2504 35.189C41.277 37.7755 41.4026 39.7194 40.561 40.561Z" fill="white"/>
</svg>
