<svg width="444" height="444" viewBox="0 0 444 444" fill="none" xmlns="http://www.w3.org/2000/svg">
<rect width="444" height="444" rx="8" fill="black"/>
<line x1="157.5" y1="32.5" x2="157.5" y2="405.5" stroke="#919191" stroke-width="11" stroke-linecap="round"/>
<line x1="35.5" y1="283.5" x2="408.5" y2="283.5" stroke="#919191" stroke-width="11" stroke-linecap="round"/>
<line x1="297.5" y1="35.5" x2="297.5" y2="408.5" stroke="#919191" stroke-width="11" stroke-linecap="round"/>
<line x1="35.5" y1="146.5" x2="408.5" y2="146.5" stroke="#919191" stroke-width="11" stroke-linecap="round"/>
<path d="M106.047 108.28C104.127 108.28 102.677 107.64 101.695 106.36C100.714 105.08 99.7326 103.523 98.7513 101.688C97.8126 99.8533 96.9166 98.04 96.0633 96.248C95.2099 94.4133 94.3566 92.5573 93.5033 90.68C91.2419 93.368 89.1086 95.928 87.1033 98.36C85.1406 100.749 83.4126 102.861 81.9193 104.696C80.4686 106.488 79.3806 107.875 78.6553 108.856C78.0153 109.667 77.3753 110.349 76.7353 110.904C76.1379 111.501 75.2633 111.8 74.1113 111.8C73.0019 111.8 72.1273 111.459 71.4873 110.776C70.8899 110.136 70.5913 109.24 70.5913 108.088C70.5913 107.192 71.1246 105.891 72.1913 104.184C73.2579 102.435 74.6873 100.387 76.4792 98.04C78.3139 95.6507 80.3619 93.112 82.6233 90.424C84.9273 87.6933 87.3166 84.8987 89.7913 82.04C87.3166 75.9387 85.3753 70.7973 83.9673 66.616C82.6019 62.392 81.9193 59.384 81.9193 57.592C81.9193 55.2453 83.0713 54.072 85.3753 54.072C86.6126 54.072 87.5726 54.4133 88.2553 55.096C88.9806 55.736 89.5779 56.632 90.0473 57.784C90.4739 58.7653 91.1353 60.5573 92.0313 63.16C92.9273 65.72 94.3353 69.56 96.2553 74.68C99.2419 71.2667 101.695 68.3653 103.615 65.976C105.578 63.5867 107.199 61.6667 108.479 60.216C109.759 58.7653 110.869 57.6987 111.807 57.016C112.746 56.3333 113.663 55.992 114.559 55.992C115.754 55.992 116.671 56.312 117.311 56.952C117.994 57.5493 118.335 58.424 118.335 59.576C118.335 60.6427 118.143 61.56 117.759 62.328C117.375 63.096 116.863 63.9067 116.223 64.76C115.242 66.2107 113.855 67.9173 112.063 69.88C110.314 71.8 108.351 73.912 106.175 76.216C104.042 78.52 101.887 80.9307 99.7113 83.448C101.333 87.3733 102.89 90.7653 104.383 93.624C105.877 96.4827 107.093 98.8293 108.031 100.664C108.97 102.499 109.439 103.864 109.439 104.76C109.439 105.827 109.141 106.68 108.543 107.32C107.946 107.96 107.114 108.28 106.047 108.28Z" fill="#FF0000"/>
<path d="M239.047 245.28C237.127 245.28 235.677 244.64 234.695 243.36C233.714 242.08 232.733 240.523 231.751 238.688C230.813 236.853 229.917 235.04 229.063 233.248C228.21 231.413 227.357 229.557 226.503 227.68C224.242 230.368 222.109 232.928 220.103 235.36C218.141 237.749 216.413 239.861 214.919 241.696C213.469 243.488 212.381 244.875 211.655 245.856C211.015 246.667 210.375 247.349 209.735 247.904C209.138 248.501 208.263 248.8 207.111 248.8C206.002 248.8 205.127 248.459 204.487 247.776C203.89 247.136 203.591 246.24 203.591 245.088C203.591 244.192 204.125 242.891 205.191 241.184C206.258 239.435 207.687 237.387 209.479 235.04C211.314 232.651 213.362 230.112 215.623 227.424C217.927 224.693 220.317 221.899 222.791 219.04C220.317 212.939 218.375 207.797 216.967 203.616C215.602 199.392 214.919 196.384 214.919 194.592C214.919 192.245 216.071 191.072 218.375 191.072C219.613 191.072 220.573 191.413 221.255 192.096C221.981 192.736 222.578 193.632 223.047 194.784C223.474 195.765 224.135 197.557 225.031 200.16C225.927 202.72 227.335 206.56 229.255 211.68C232.242 208.267 234.695 205.365 236.615 202.976C238.578 200.587 240.199 198.667 241.479 197.216C242.759 195.765 243.869 194.699 244.807 194.016C245.746 193.333 246.663 192.992 247.559 192.992C248.754 192.992 249.671 193.312 250.311 193.952C250.994 194.549 251.335 195.424 251.335 196.576C251.335 197.643 251.143 198.56 250.759 199.328C250.375 200.096 249.863 200.907 249.223 201.76C248.242 203.211 246.855 204.917 245.063 206.88C243.314 208.8 241.351 210.912 239.175 213.216C237.042 215.52 234.887 217.931 232.711 220.448C234.333 224.373 235.89 227.765 237.383 230.624C238.877 233.483 240.093 235.829 241.031 237.664C241.97 239.499 242.439 240.864 242.439 241.76C242.439 242.827 242.141 243.68 241.543 244.32C240.946 244.96 240.114 245.28 239.047 245.28Z" fill="#FF0000"/>
<path d="M371.047 382.28C369.127 382.28 367.677 381.64 366.695 380.36C365.714 379.08 364.733 377.523 363.751 375.688C362.813 373.853 361.917 372.04 361.063 370.248C360.21 368.413 359.357 366.557 358.503 364.68C356.242 367.368 354.109 369.928 352.103 372.36C350.141 374.749 348.413 376.861 346.919 378.696C345.469 380.488 344.381 381.875 343.655 382.856C343.015 383.667 342.375 384.349 341.735 384.904C341.138 385.501 340.263 385.8 339.111 385.8C338.002 385.8 337.127 385.459 336.487 384.776C335.89 384.136 335.591 383.24 335.591 382.088C335.591 381.192 336.125 379.891 337.191 378.184C338.258 376.435 339.687 374.387 341.479 372.04C343.314 369.651 345.362 367.112 347.623 364.424C349.927 361.693 352.317 358.899 354.791 356.04C352.317 349.939 350.375 344.797 348.967 340.616C347.602 336.392 346.919 333.384 346.919 331.592C346.919 329.245 348.071 328.072 350.375 328.072C351.613 328.072 352.573 328.413 353.255 329.096C353.981 329.736 354.578 330.632 355.047 331.784C355.474 332.765 356.135 334.557 357.031 337.16C357.927 339.72 359.335 343.56 361.255 348.68C364.242 345.267 366.695 342.365 368.615 339.976C370.578 337.587 372.199 335.667 373.479 334.216C374.759 332.765 375.869 331.699 376.807 331.016C377.746 330.333 378.663 329.992 379.559 329.992C380.754 329.992 381.671 330.312 382.311 330.952C382.994 331.549 383.335 332.424 383.335 333.576C383.335 334.643 383.143 335.56 382.759 336.328C382.375 337.096 381.863 337.907 381.223 338.76C380.242 340.211 378.855 341.917 377.063 343.88C375.314 345.8 373.351 347.912 371.175 350.216C369.042 352.52 366.887 354.931 364.711 357.448C366.333 361.373 367.89 364.765 369.383 367.624C370.877 370.483 372.093 372.829 373.031 374.664C373.97 376.499 374.439 377.864 374.439 378.76C374.439 379.827 374.141 380.68 373.543 381.32C372.946 381.96 372.114 382.28 371.047 382.28Z" fill="#FF0000"/>
<path d="M102.047 382.28C100.127 382.28 98.6766 381.64 97.6953 380.36C96.7139 379.08 95.7326 377.523 94.7513 375.688C93.8126 373.853 92.9166 372.04 92.0633 370.248C91.2099 368.413 90.3566 366.557 89.5033 364.68C87.2419 367.368 85.1086 369.928 83.1033 372.36C81.1406 374.749 79.4126 376.861 77.9193 378.696C76.4686 380.488 75.3806 381.875 74.6553 382.856C74.0153 383.667 73.3753 384.349 72.7353 384.904C72.1379 385.501 71.2633 385.8 70.1113 385.8C69.0019 385.8 68.1273 385.459 67.4873 384.776C66.8899 384.136 66.5913 383.24 66.5913 382.088C66.5913 381.192 67.1246 379.891 68.1913 378.184C69.2579 376.435 70.6873 374.387 72.4792 372.04C74.3139 369.651 76.3619 367.112 78.6233 364.424C80.9273 361.693 83.3166 358.899 85.7913 356.04C83.3166 349.939 81.3753 344.797 79.9673 340.616C78.6019 336.392 77.9193 333.384 77.9193 331.592C77.9193 329.245 79.0713 328.072 81.3753 328.072C82.6126 328.072 83.5726 328.413 84.2553 329.096C84.9806 329.736 85.5779 330.632 86.0473 331.784C86.4739 332.765 87.1353 334.557 88.0313 337.16C88.9273 339.72 90.3353 343.56 92.2553 348.68C95.2419 345.267 97.6953 342.365 99.6153 339.976C101.578 337.587 103.199 335.667 104.479 334.216C105.759 332.765 106.869 331.699 107.807 331.016C108.746 330.333 109.663 329.992 110.559 329.992C111.754 329.992 112.671 330.312 113.311 330.952C113.994 331.549 114.335 332.424 114.335 333.576C114.335 334.643 114.143 335.56 113.759 336.328C113.375 337.096 112.863 337.907 112.223 338.76C111.242 340.211 109.855 341.917 108.063 343.88C106.314 345.8 104.351 347.912 102.175 350.216C100.042 352.52 97.8873 354.931 95.7113 357.448C97.3326 361.373 98.8899 364.765 100.383 367.624C101.877 370.483 103.093 372.829 104.031 374.664C104.97 376.499 105.439 377.864 105.439 378.76C105.439 379.827 105.141 380.68 104.543 381.32C103.946 381.96 103.114 382.28 102.047 382.28Z" fill="#DBDBDB"/>
<path d="M371.047 106.28C369.127 106.28 367.677 105.64 366.695 104.36C365.714 103.08 364.733 101.523 363.751 99.688C362.813 97.8533 361.917 96.04 361.063 94.248C360.21 92.4133 359.357 90.5573 358.503 88.68C356.242 91.368 354.109 93.928 352.103 96.36C350.141 98.7493 348.413 100.861 346.919 102.696C345.469 104.488 344.381 105.875 343.655 106.856C343.015 107.667 342.375 108.349 341.735 108.904C341.138 109.501 340.263 109.8 339.111 109.8C338.002 109.8 337.127 109.459 336.487 108.776C335.89 108.136 335.591 107.24 335.591 106.088C335.591 105.192 336.125 103.891 337.191 102.184C338.258 100.435 339.687 98.3867 341.479 96.04C343.314 93.6507 345.362 91.112 347.623 88.424C349.927 85.6933 352.317 82.8987 354.791 80.04C352.317 73.9387 350.375 68.7973 348.967 64.616C347.602 60.392 346.919 57.384 346.919 55.592C346.919 53.2453 348.071 52.072 350.375 52.072C351.613 52.072 352.573 52.4133 353.255 53.096C353.981 53.736 354.578 54.632 355.047 55.784C355.474 56.7653 356.135 58.5573 357.031 61.16C357.927 63.72 359.335 67.56 361.255 72.68C364.242 69.2667 366.695 66.3653 368.615 63.976C370.578 61.5867 372.199 59.6667 373.479 58.216C374.759 56.7653 375.869 55.6987 376.807 55.016C377.746 54.3333 378.663 53.992 379.559 53.992C380.754 53.992 381.671 54.312 382.311 54.952C382.994 55.5493 383.335 56.424 383.335 57.576C383.335 58.6427 383.143 59.56 382.759 60.328C382.375 61.096 381.863 61.9067 381.223 62.76C380.242 64.2107 378.855 65.9173 377.063 67.88C375.314 69.8 373.351 71.912 371.175 74.216C369.042 76.52 366.887 78.9307 364.711 81.448C366.333 85.3733 367.89 88.7653 369.383 91.624C370.877 94.4827 372.093 96.8293 373.031 98.664C373.97 100.499 374.439 101.864 374.439 102.76C374.439 103.827 374.141 104.68 373.543 105.32C372.946 105.96 372.114 106.28 371.047 106.28Z" fill="#DBDBDB"/>
<path d="M223.73 106.088C220.914 106.088 218.29 105.384 215.858 103.976C213.426 102.525 211.464 100.392 209.97 97.576C208.477 94.76 207.73 91.2613 207.73 87.08C207.73 84.264 208.221 81.576 209.202 79.016C210.184 76.4133 211.293 74.1093 212.53 72.104C212.317 71.5493 212.21 70.9093 212.21 70.184C212.21 68.52 212.68 66.8773 213.618 65.256C214.6 63.592 215.88 62.0773 217.458 60.712C219.08 59.3467 220.893 58.2587 222.898 57.448C224.904 56.6373 226.952 56.232 229.042 56.232C232.285 56.232 235.144 57.0427 237.618 58.664C240.093 60.2853 242.034 62.5467 243.442 65.448C244.85 68.3067 245.554 71.6133 245.554 75.368C245.554 79.8907 244.957 84.0293 243.762 87.784C242.61 91.5387 241.01 94.7813 238.962 97.512C236.957 100.243 234.632 102.355 231.986 103.848C229.384 105.341 226.632 106.088 223.73 106.088ZM224.114 66.28C224.2 66.536 224.242 66.8347 224.242 67.176C224.242 67.816 224.114 68.3493 223.858 68.776C223.602 69.2027 223.261 69.672 222.834 70.184C222.28 70.824 221.64 71.8053 220.914 73.128C220.232 74.408 219.57 75.9013 218.93 77.608C218.29 79.3147 217.757 81.0853 217.33 82.92C216.946 84.712 216.754 86.4187 216.754 88.04C216.754 90.8987 217.288 93.1387 218.354 94.76C219.421 96.3813 221 97.192 223.09 97.192C224.84 97.192 226.525 96.616 228.146 95.464C229.81 94.312 231.282 92.7547 232.562 90.792C233.842 88.7867 234.845 86.504 235.57 83.944C236.338 81.384 236.722 78.6747 236.722 75.816C236.722 73.768 236.445 71.912 235.89 70.248C235.336 68.584 234.546 67.2613 233.522 66.28C232.498 65.2987 231.282 64.808 229.874 64.808C228.722 64.808 227.656 64.9573 226.674 65.256C225.736 65.512 224.882 65.8533 224.114 66.28Z" fill="#DBDBDB"/>
<path d="M90.7303 244.088C87.9143 244.088 85.2903 243.384 82.8583 241.976C80.4263 240.525 78.4636 238.392 76.9703 235.576C75.4769 232.76 74.7303 229.261 74.7303 225.08C74.7303 222.264 75.2209 219.576 76.2023 217.016C77.1836 214.413 78.2929 212.109 79.5303 210.104C79.3169 209.549 79.2103 208.909 79.2103 208.184C79.2103 206.52 79.6796 204.877 80.6183 203.256C81.5996 201.592 82.8796 200.077 84.4583 198.712C86.0796 197.347 87.8929 196.259 89.8983 195.448C91.9036 194.637 93.9516 194.232 96.0423 194.232C99.2849 194.232 102.144 195.043 104.618 196.664C107.093 198.285 109.034 200.547 110.442 203.448C111.85 206.307 112.554 209.613 112.554 213.368C112.554 217.891 111.957 222.029 110.762 225.784C109.61 229.539 108.01 232.781 105.962 235.512C103.957 238.243 101.632 240.355 98.9863 241.848C96.3836 243.341 93.6316 244.088 90.7303 244.088ZM91.1143 204.28C91.1996 204.536 91.2423 204.835 91.2423 205.176C91.2423 205.816 91.1143 206.349 90.8583 206.776C90.6023 207.203 90.2609 207.672 89.8343 208.184C89.2796 208.824 88.6396 209.805 87.9143 211.128C87.2316 212.408 86.5703 213.901 85.9303 215.608C85.2903 217.315 84.7569 219.085 84.3303 220.92C83.9463 222.712 83.7543 224.419 83.7543 226.04C83.7543 228.899 84.2876 231.139 85.3542 232.76C86.4209 234.381 87.9996 235.192 90.0903 235.192C91.8396 235.192 93.5249 234.616 95.1463 233.464C96.8103 232.312 98.2823 230.755 99.5623 228.792C100.842 226.787 101.845 224.504 102.57 221.944C103.338 219.384 103.722 216.675 103.722 213.816C103.722 211.768 103.445 209.912 102.89 208.248C102.336 206.584 101.546 205.261 100.522 204.28C99.4983 203.299 98.2823 202.808 96.8743 202.808C95.7223 202.808 94.6556 202.957 93.6743 203.256C92.7356 203.512 91.8823 203.853 91.1143 204.28Z" fill="#DBDBDB"/>
<path d="M223.73 382.088C220.914 382.088 218.29 381.384 215.858 379.976C213.426 378.525 211.464 376.392 209.97 373.576C208.477 370.76 207.73 367.261 207.73 363.08C207.73 360.264 208.221 357.576 209.202 355.016C210.184 352.413 211.293 350.109 212.53 348.104C212.317 347.549 212.21 346.909 212.21 346.184C212.21 344.52 212.68 342.877 213.618 341.256C214.6 339.592 215.88 338.077 217.458 336.712C219.08 335.347 220.893 334.259 222.898 333.448C224.904 332.637 226.952 332.232 229.042 332.232C232.285 332.232 235.144 333.043 237.618 334.664C240.093 336.285 242.034 338.547 243.442 341.448C244.85 344.307 245.554 347.613 245.554 351.368C245.554 355.891 244.957 360.029 243.762 363.784C242.61 367.539 241.01 370.781 238.962 373.512C236.957 376.243 234.632 378.355 231.986 379.848C229.384 381.341 226.632 382.088 223.73 382.088ZM224.114 342.28C224.2 342.536 224.242 342.835 224.242 343.176C224.242 343.816 224.114 344.349 223.858 344.776C223.602 345.203 223.261 345.672 222.834 346.184C222.28 346.824 221.64 347.805 220.914 349.128C220.232 350.408 219.57 351.901 218.93 353.608C218.29 355.315 217.757 357.085 217.33 358.92C216.946 360.712 216.754 362.419 216.754 364.04C216.754 366.899 217.288 369.139 218.354 370.76C219.421 372.381 221 373.192 223.09 373.192C224.84 373.192 226.525 372.616 228.146 371.464C229.81 370.312 231.282 368.755 232.562 366.792C233.842 364.787 234.845 362.504 235.57 359.944C236.338 357.384 236.722 354.675 236.722 351.816C236.722 349.768 236.445 347.912 235.89 346.248C235.336 344.584 234.546 343.261 233.522 342.28C232.498 341.299 231.282 340.808 229.874 340.808C228.722 340.808 227.656 340.957 226.674 341.256C225.736 341.512 224.882 341.853 224.114 342.28Z" fill="#DBDBDB"/>
<path d="M355.73 244.088C352.914 244.088 350.29 243.384 347.858 241.976C345.426 240.525 343.464 238.392 341.97 235.576C340.477 232.76 339.73 229.261 339.73 225.08C339.73 222.264 340.221 219.576 341.202 217.016C342.184 214.413 343.293 212.109 344.53 210.104C344.317 209.549 344.21 208.909 344.21 208.184C344.21 206.52 344.68 204.877 345.618 203.256C346.6 201.592 347.88 200.077 349.458 198.712C351.08 197.347 352.893 196.259 354.898 195.448C356.904 194.637 358.952 194.232 361.042 194.232C364.285 194.232 367.144 195.043 369.618 196.664C372.093 198.285 374.034 200.547 375.442 203.448C376.85 206.307 377.554 209.613 377.554 213.368C377.554 217.891 376.957 222.029 375.762 225.784C374.61 229.539 373.01 232.781 370.962 235.512C368.957 238.243 366.632 240.355 363.986 241.848C361.384 243.341 358.632 244.088 355.73 244.088ZM356.114 204.28C356.2 204.536 356.242 204.835 356.242 205.176C356.242 205.816 356.114 206.349 355.858 206.776C355.602 207.203 355.261 207.672 354.834 208.184C354.28 208.824 353.64 209.805 352.914 211.128C352.232 212.408 351.57 213.901 350.93 215.608C350.29 217.315 349.757 219.085 349.33 220.92C348.946 222.712 348.754 224.419 348.754 226.04C348.754 228.899 349.288 231.139 350.354 232.76C351.421 234.381 353 235.192 355.09 235.192C356.84 235.192 358.525 234.616 360.146 233.464C361.81 232.312 363.282 230.755 364.562 228.792C365.842 226.787 366.845 224.504 367.57 221.944C368.338 219.384 368.722 216.675 368.722 213.816C368.722 211.768 368.445 209.912 367.89 208.248C367.336 206.584 366.546 205.261 365.522 204.28C364.498 203.299 363.282 202.808 361.874 202.808C360.722 202.808 359.656 202.957 358.674 203.256C357.736 203.512 356.882 203.853 356.114 204.28Z" fill="#DBDBDB"/>
</svg>
