<svg width="38" height="38" viewBox="0 0 38 38" fill="none" xmlns="http://www.w3.org/2000/svg">
<g clip-path="url(#clip0_236_239)">
<circle cx="31" cy="31" r="6" fill="#8750F7"/>
<path d="M17.0258 20.0836C13.5375 20.0836 10.3535 18.3172 8.50549 15.3559C7.51096 13.7676 6.98401 11.927 6.98401 10.0418C6.98401 7.34766 8.03792 4.82422 9.94534 2.92422C11.8379 1.03906 14.3539 0 17.0258 0H17.0852C19.7571 0.0148438 22.2731 1.07617 24.1656 2.99102C26.0582 4.90586 27.0899 7.43672 27.075 10.1086C27.0602 11.9715 26.5406 13.7824 25.5535 15.3559C23.6981 18.3098 20.5141 20.0836 17.0258 20.0836ZM24.9672 10.0938C24.9821 7.97852 24.1656 5.98203 22.6664 4.46797C21.1672 2.95391 19.1856 2.11523 17.0703 2.10039C17.0555 2.10039 17.0406 2.10039 17.0258 2.10039C14.9106 2.10039 12.9289 2.9168 11.4297 4.40859C9.92307 5.90781 9.09182 7.9043 9.09182 10.0344C9.09182 11.5262 9.50745 12.9734 10.2942 14.2352C11.7563 16.573 14.2723 17.9758 17.0332 17.9758C19.7867 17.9758 22.3102 16.5805 23.7723 14.2352C24.5367 12.9957 24.9524 11.5633 24.9672 10.0938Z" fill="#8750F7"/>
<path d="M30.9715 37.9999C27.0973 37.9999 23.943 34.8456 23.943 30.9714C23.943 27.0972 27.0973 23.9429 30.9715 23.9429C34.8457 23.9429 38 27.0897 38 30.9714C38 34.853 34.8457 37.9999 30.9715 37.9999ZM30.9715 26.0433C28.2551 26.0433 26.0434 28.255 26.0434 30.9714C26.0434 33.6878 28.2551 35.8995 30.9715 35.8995C33.6879 35.8995 35.8996 33.6878 35.8996 30.9714C35.8996 28.255 33.6879 26.0433 30.9715 26.0433Z" fill="#8750F7"/>
<path d="M31.0977 29.1012C30.2813 29.1828 29.5911 28.5 29.6727 27.6762C29.7321 27.0676 30.2219 26.5777 30.8305 26.5184C31.6469 26.4367 32.3372 27.1195 32.2555 27.9434C32.1962 28.5445 31.7063 29.0344 31.0977 29.1012Z" fill="white"/>
<path d="M30.9715 35.4246C30.3926 35.4246 29.9176 34.957 29.9176 34.3707V30.6152C29.9176 30.0363 30.3852 29.5613 30.9715 29.5613C31.5504 29.5613 32.0254 30.0289 32.0254 30.6152V34.3707C32.018 34.957 31.5504 35.4246 30.9715 35.4246Z" fill="white"/>
<path d="M17.0258 35.0535C11.3184 35.0535 5.85587 33.2945 1.23205 29.977C0.237514 29.257 -0.222642 27.9656 0.10392 26.7633C0.526967 25.2121 1.15783 23.7203 1.98908 22.3399C4.57189 18.05 9.78204 16.1055 14.6731 17.627C15.4301 17.8645 16.2242 17.9832 17.0258 17.9832C17.8274 17.9832 18.6215 17.8645 19.3785 17.627C23.5496 16.3356 28.077 17.5676 30.9047 20.7664C31.1645 21.0633 31.2387 21.4863 31.0902 21.85C30.9418 22.2211 30.6004 22.4735 30.207 22.5106C25.8652 22.8965 22.466 26.6074 22.466 30.9715C22.466 31.7582 22.5699 32.5375 22.7852 33.2871C22.8668 33.5692 22.8223 33.8809 22.6664 34.1258C22.5106 34.3781 22.2582 34.5488 21.9613 34.6008C20.3508 34.8977 18.6883 35.0535 17.0258 35.0535ZM11.3258 19.2153C8.27541 19.2153 5.40314 20.7516 3.80001 23.4235C3.06525 24.6406 2.50861 25.9469 2.13751 27.3125C2.04103 27.6688 2.17462 28.0547 2.46408 28.2625C6.72423 31.3278 11.7637 32.9457 17.0258 32.9457C18.191 32.9457 19.3563 32.8641 20.5141 32.7008C20.4176 32.1293 20.3731 31.5504 20.3731 30.9641C20.3731 28.2996 21.3676 25.7465 23.1711 23.7871C24.4551 22.3918 26.0731 21.375 27.8617 20.8258C25.6426 19.2524 22.7332 18.7774 20.0094 19.6235C19.052 19.9203 18.05 20.0688 17.0332 20.0688C16.0164 20.0688 15.0145 19.9203 14.057 19.616C13.1442 19.3488 12.2238 19.2153 11.3258 19.2153Z" fill="#8750F7"/>
</g>
<defs>
<clipPath id="clip0_236_239">
<rect width="38" height="38" fill="white"/>
</clipPath>
</defs>
</svg>
