<svg width="47" height="47" viewBox="0 0 47 47" fill="none" xmlns="http://www.w3.org/2000/svg">
<g clip-path="url(#clip0_20_47)">
<path d="M8.32288 0.587542H38.677C43.2737 0.587542 47 4.31387 47 8.91042V38.0896C47 42.6862 43.2737 46.4126 38.677 46.4126H8.32288C3.72633 46.4125 0 42.6862 0 38.0896V8.91042C0 4.31378 3.72633 0.587542 8.32288 0.587542Z" fill="white"/>
<path d="M18.8812 28.0042H11.5979L10.1161 32.6162C10.0745 32.7894 9.91563 32.9085 9.73768 32.9H6.04879C5.83844 32.9 5.76484 32.7844 5.82807 32.5532L12.1339 14.4674C12.197 14.2782 12.26 14.0933 12.3231 13.8514C12.4057 13.4308 12.4479 13.0032 12.4492 12.5745C12.434 12.4678 12.5082 12.369 12.6149 12.3538C12.6332 12.3512 12.6516 12.3512 12.6699 12.3538H17.6831C17.8298 12.3538 17.914 12.4064 17.9354 12.5115L25.0924 32.5847C25.1555 32.795 25.0924 32.9002 24.9033 32.9H20.8044C20.6588 32.9161 20.5238 32.8217 20.4892 32.6793L18.8812 28.0042ZM15.2237 15.9493H15.1921L12.7329 24.1153H17.7146L15.2237 15.9493Z" fill="#09101A"/>
<path d="M36.6952 26.2091H30.484C30.5601 26.8236 30.7642 27.4154 31.0831 27.9462C31.4357 28.4718 31.9343 28.8827 32.5177 29.1285C33.3082 29.4705 34.1632 29.6381 35.0243 29.6198C35.7075 29.6067 36.3882 29.5319 37.0579 29.3965C37.657 29.3156 38.244 29.1626 38.8064 28.9407C38.9113 28.857 38.9641 28.9093 38.9641 29.0984V32.0937C38.9693 32.1752 38.953 32.2568 38.9167 32.3302C38.8807 32.3875 38.8321 32.436 38.7749 32.472C38.1512 32.7483 37.4947 32.9439 36.8215 33.054C35.907 33.2258 34.9774 33.305 34.047 33.2905C32.5543 33.2905 31.3036 33.0593 30.295 32.5969C29.3415 32.1768 28.4994 31.5398 27.8358 30.7367C27.2158 29.9799 26.7547 29.1059 26.48 28.1671C26.2079 27.2403 26.0698 26.2794 26.0701 25.3137C26.0672 24.2591 26.2322 23.2108 26.5588 22.2081C26.8734 21.23 27.3709 20.3206 28.0249 19.5281C29.4661 17.7818 31.4497 17.0541 33.6686 17.0541C35.5807 17.0541 37.5421 17.6873 38.7763 19.2128C39.2928 19.8793 39.6877 20.6318 39.9429 21.4356C40.1913 22.2102 40.3189 23.0183 40.3213 23.8318C40.3213 24.2944 40.3055 24.7148 40.2739 25.093C40.2424 25.4713 40.2162 25.7446 40.1952 25.9127C40.1782 26.0566 40.0562 26.165 39.9114 26.165C39.7853 26.165 39.5698 26.1808 39.2651 26.2123C38.9602 26.2437 38.5819 26.2648 38.1301 26.2753C37.6775 26.286 37.1997 26.2091 36.6952 26.2091ZM30.484 23.3368H34.6143C35.1188 23.3368 35.4919 23.3315 35.7336 23.321C35.8953 23.3048 36.0515 23.2531 36.1909 23.1695V22.9802C36.1846 22.7336 36.1421 22.4893 36.0648 22.2551C35.7152 21.1495 34.6698 20.4138 33.511 20.458C32.4268 20.3925 31.4064 20.9738 30.9099 21.9398C30.6936 22.3796 30.5499 22.8513 30.484 23.3368Z" fill="#09101A"/>
</g>
<defs>
<clipPath id="clip0_20_47">
<rect width="47" height="47" fill="white"/>
</clipPath>
</defs>
</svg>
