<svg width="47" height="47" viewBox="0 0 47 47" fill="none" xmlns="http://www.w3.org/2000/svg">
<g clip-path="url(#clip0_24_105)">
<path d="M25.4047 21.6953H17.5708V14.123H25.4047C26.7101 14.123 27.7088 14.4075 28.4001 14.9675C29.0904 15.5284 29.4365 16.5042 29.4365 17.8857C29.4365 19.1149 29.0528 20.0521 28.2844 20.7121C27.5161 21.3731 26.5568 21.6953 25.4047 21.6953Z" fill="white"/>
<path d="M30.6647 29.3677C30.6647 30.7501 30.258 31.8251 29.4521 32.5778C28.6534 33.3379 27.5161 33.7142 26.0574 33.7142H17.5708V25.1432H26.0574C27.5161 25.1432 28.6378 25.4966 29.4521 26.2337C30.2654 26.9708 30.6647 28.0081 30.6647 29.3677Z" fill="white"/>
<path d="M39.167 0H7.83303C3.525 0 0 3.525 0 7.83303V39.167C0 43.475 3.525 47 7.83303 47H39.167C43.475 47 47 43.475 47 39.167V7.83303C47 3.525 43.475 0 39.167 0ZM34.8892 33.0001C34.5046 33.9364 33.9061 34.7433 33.0845 35.4189C32.2629 36.0945 31.2183 36.6325 29.9359 37.0318C28.6535 37.4311 27.1324 37.6303 25.3662 37.6303H12.7717V10.2142H26.096C28.5534 10.2142 30.5271 10.7751 32.0096 11.9033C33.4912 13.0324 34.2366 14.7297 34.2366 17.0109C34.2366 18.3933 33.8988 19.5757 33.2222 20.5588C32.5466 21.542 31.579 22.3094 30.3196 22.8473V22.9244C32.0096 23.2852 33.292 24.0838 34.1595 25.3203C35.0269 26.5642 35.4648 28.1155 35.4648 29.9891C35.4648 31.065 35.2729 32.0702 34.8892 33.0001Z" fill="white"/>
</g>
<defs>
<clipPath id="clip0_24_105">
<rect width="47" height="47" fill="white"/>
</clipPath>
</defs>
</svg>
