<svg width="47" height="47" viewBox="0 0 47 47" fill="none" xmlns="http://www.w3.org/2000/svg">
<g clip-path="url(#clip0_25_139)">
<path d="M46.1136 21.4062L25.593 0.886661C24.4119 -0.295132 22.4952 -0.295132 21.3127 0.886661L17.0515 5.14787L22.457 10.5534C23.7132 10.129 25.1536 10.4137 26.1549 11.415C27.161 12.4228 27.4438 13.8756 27.009 15.1357L32.2185 20.3454C33.4789 19.9112 34.9331 20.1921 35.9398 21.2004C37.3466 22.6067 37.3466 24.886 35.9398 26.2933C34.5325 27.7007 32.2532 27.7007 30.8452 26.2933C29.787 25.2339 29.5255 23.6798 30.0613 22.3761L25.203 17.5179L25.2025 30.3028C25.5546 30.4769 25.8763 30.7069 26.1549 30.9839C27.5618 32.3902 27.5618 34.6697 26.1549 36.0781C24.7477 37.4848 22.4673 37.4848 21.0621 36.0781C19.6552 34.6697 19.6552 32.3904 21.0621 30.9841C21.3992 30.6468 21.7999 30.3796 22.2409 30.1981V17.2941C21.7992 17.1138 21.3983 16.8465 21.0621 16.5081C19.9961 15.4436 19.7398 13.8796 20.286 12.5708L14.9574 7.24157L0.886758 21.3113C-0.295586 22.4942 -0.295586 24.4111 0.886758 25.5931L21.4078 46.113C22.5892 47.2949 24.5055 47.2949 25.6884 46.113L46.1134 25.6883C47.2954 24.506 47.2956 22.588 46.1136 21.4062Z" fill="white"/>
</g>
<defs>
<clipPath id="clip0_25_139">
<rect width="47" height="47" fill="white"/>
</clipPath>
</defs>
</svg>
