<svg width="47" height="47" viewBox="0 0 47 47" fill="none" xmlns="http://www.w3.org/2000/svg">
<path d="M16.2113 43.5987C17.6157 43.5987 18.0125 43.0421 18.0125 42.3309C18.0125 41.6197 18.0125 40.0737 17.982 37.8783C10.6854 39.4553 9.12841 34.3533 9.12841 34.3533C7.93775 31.3539 6.19756 30.5191 6.19756 30.5191C3.81625 28.9112 6.38074 28.9421 6.38074 28.9421C9.00629 29.1276 10.4107 31.6322 10.4107 31.6322C12.7614 35.652 16.5471 34.477 18.0431 33.7967C18.1652 32.4671 18.7453 31.1993 19.7222 30.2717C13.891 29.6224 7.75458 27.3651 7.75458 17.3467C7.72405 14.7493 8.701 12.2138 10.4717 10.3276C10.1664 9.67829 9.28106 7.01908 10.6854 3.40131C10.6854 3.40131 12.8836 2.69013 17.921 6.09145C22.2256 4.91645 26.744 4.91645 31.0487 6.09145C36.025 2.72105 38.2537 3.40131 38.2537 3.40131C39.6581 6.98816 38.7727 9.64737 38.5285 10.3276C40.2992 12.2138 41.2456 14.7493 41.2151 17.3467C41.2151 27.396 35.0786 29.5914 29.2169 30.2408C30.1328 31.0138 30.9876 32.6217 30.9876 35.0645C30.9876 38.5895 30.9571 41.3724 30.9571 42.2072C30.9571 42.8875 31.2624 43.4441 32.7584 43.4441L16.2113 43.5987Z" fill="white"/>
</svg>
