<svg width="47" height="47" viewBox="0 0 47 47" fill="none" xmlns="http://www.w3.org/2000/svg">
<g clip-path="url(#clip0_25_143)">
<path d="M3.41068 11.4946C-0.750383 17.4762 -0.231816 25.2562 2.94538 31.6122C3.02058 31.7626 3.10048 31.9114 3.17882 32.0618C3.22738 32.1574 3.27438 32.2545 3.32608 32.3501L3.42008 32.5146C3.47335 32.6149 3.52975 32.7104 3.58615 32.8107C3.68485 32.9846 3.78512 33.1569 3.88852 33.3308C3.94648 33.4264 4.00132 33.5204 4.06085 33.616C4.17522 33.7993 4.29115 33.9826 4.41492 34.1674C4.46348 34.2442 4.51362 34.3241 4.56375 34.3993C4.72982 34.6437 4.89902 34.8912 5.07292 35.1341C5.07918 35.1403 5.08232 35.1497 5.08858 35.1529C5.11678 35.192 5.14655 35.2328 5.17475 35.2688C5.32672 35.4803 5.48182 35.6855 5.64005 35.8876C5.69802 35.9644 5.75598 36.038 5.81395 36.1117C5.95495 36.2887 6.09908 36.4642 6.24478 36.6412C6.29805 36.7054 6.35132 36.7728 6.40772 36.837C6.60355 37.0658 6.80408 37.2961 7.00775 37.5201C7.01088 37.5232 7.01715 37.5295 7.02028 37.5326C7.02968 37.5452 7.03595 37.5483 7.04378 37.5608C7.24118 37.7786 7.44642 37.9885 7.65165 38.2C7.71588 38.2674 7.78012 38.3316 7.84748 38.3959C8.00728 38.5588 8.16865 38.717 8.33315 38.8737C8.40052 38.9379 8.46632 39.0022 8.53212 39.0633C8.75145 39.2685 8.97078 39.4706 9.19795 39.6696C9.20108 39.6727 9.20422 39.6758 9.20892 39.6758C9.24652 39.7119 9.28725 39.7432 9.32328 39.7761C9.52225 39.9469 9.72435 40.1192 9.92958 40.2868C10.0126 40.3542 10.0957 40.4184 10.1803 40.4858C10.3448 40.6174 10.514 40.749 10.6832 40.8806C10.774 40.948 10.8618 41.0153 10.9526 41.0858C11.1391 41.2237 11.3271 41.3584 11.5166 41.49C11.5871 41.5417 11.6545 41.5903 11.7234 41.6373C11.7438 41.6498 11.761 41.6655 11.7798 41.6765C11.96 41.8018 12.1449 41.9209 12.3313 42.0399C12.4096 42.0916 12.488 42.1465 12.5663 42.1997C12.8514 42.3768 13.1366 42.5554 13.4264 42.7261C13.5063 42.7716 13.5862 42.8154 13.6645 42.8609C13.8792 42.9831 14.0922 43.1021 14.31 43.2212C14.4259 43.2854 14.5481 43.3434 14.6672 43.4045C14.8223 43.4844 14.9727 43.5674 15.1294 43.6426C15.1638 43.6614 15.2014 43.6787 15.2359 43.6943C15.2986 43.7257 15.3612 43.7554 15.4239 43.7868C15.6652 43.9027 15.9111 44.0155 16.1571 44.1267C16.2088 44.1518 16.2589 44.1722 16.3122 44.1941C16.5942 44.3194 16.8778 44.4385 17.166 44.5497C17.235 44.5811 17.3039 44.6046 17.3744 44.6328C17.6407 44.7362 17.9102 44.838 18.1797 44.932C18.2126 44.9445 18.247 44.9539 18.2799 44.9649C18.576 45.0683 18.8768 45.167 19.1792 45.2594C19.2513 45.2814 19.3233 45.3049 19.397 45.3237C19.7025 45.4192 20.0064 45.5289 20.3244 45.5869C40.4498 49.256 46.2919 33.4938 46.2919 33.4938C41.3851 39.8889 32.6698 41.5778 24.4119 39.6993C24.1001 39.6288 23.7962 39.5317 23.4907 39.4393C23.4139 39.4173 23.3371 39.3938 23.2619 39.3688C22.9643 39.2795 22.6682 39.1823 22.3752 39.0805C22.336 39.0648 22.2937 39.0523 22.253 39.0382C21.9898 38.9426 21.7297 38.8486 21.4697 38.7468C21.3976 38.7155 21.324 38.6888 21.2519 38.6606C20.9668 38.5478 20.6863 38.4319 20.4059 38.3081C20.3495 38.2831 20.2947 38.2596 20.2383 38.2345C19.9986 38.1248 19.762 38.0136 19.5254 37.9008C19.4565 37.8695 19.3891 37.8366 19.3186 37.8021C19.1353 37.7097 18.952 37.6157 18.7672 37.5201C18.645 37.4559 18.5212 37.3948 18.4006 37.3274C18.1765 37.2083 17.9572 37.0861 17.7394 36.9577C17.6658 36.9185 17.5906 36.8778 17.5154 36.8355C17.224 36.6647 16.9404 36.4861 16.6553 36.3059C16.577 36.2574 16.5002 36.2057 16.4234 36.1524C16.2182 36.0208 16.013 35.8829 15.8109 35.7451C15.7435 35.6996 15.6793 35.6495 15.6135 35.6072C15.4192 35.4693 15.2265 35.3283 15.0354 35.1873C14.9476 35.1231 14.863 35.0589 14.78 34.9915C14.6045 34.8599 14.4291 34.7252 14.2567 34.5842C14.1784 34.5231 14.1001 34.4588 14.0249 34.3977C13.804 34.2176 13.5893 34.0374 13.3747 33.8494C13.3512 33.8306 13.3277 33.8102 13.3026 33.7883C13.0708 33.5862 12.8436 33.3778 12.6196 33.1679C12.5491 33.1084 12.4864 33.0473 12.4237 32.9862C12.2577 32.8264 12.0932 32.6681 11.9318 32.5021C11.8676 32.4378 11.8033 32.3767 11.7391 32.3125C11.5354 32.101 11.3333 31.8895 11.1359 31.6733C11.1265 31.6639 11.1171 31.6514 11.1062 31.642C10.8978 31.4132 10.6941 31.1798 10.4952 30.9448C10.4403 30.8806 10.3886 30.8195 10.3338 30.7552C10.185 30.5782 10.0377 30.3949 9.89355 30.21C9.84028 30.1458 9.78545 30.0784 9.73218 30.0111C9.55828 29.7839 9.38908 29.5614 9.22458 29.3343C4.64052 23.0817 2.99238 14.4588 6.65838 7.37587" fill="white"/>
<path d="M16.3278 6.45467C13.3183 10.7881 13.4828 16.5832 15.8296 21.1641C16.2229 21.9318 16.6647 22.6759 17.1613 23.3856C17.6109 24.0311 18.1123 24.8019 18.7092 25.3173C18.9269 25.5555 19.1525 25.792 19.386 26.0176C19.4439 26.0787 19.5035 26.1367 19.563 26.1947C19.7886 26.4124 20.0158 26.6255 20.2523 26.8339C20.2633 26.8433 20.2711 26.8527 20.2821 26.8589C20.2837 26.8621 20.2852 26.8621 20.2884 26.8652C20.5484 27.0939 20.8195 27.3148 21.0936 27.5326C21.1547 27.578 21.2158 27.6282 21.2769 27.6767C21.5527 27.8882 21.8315 28.0935 22.1182 28.2924C22.1276 28.2987 22.1355 28.305 22.1433 28.3112C22.2718 28.4005 22.4002 28.4789 22.5287 28.565C22.5898 28.6042 22.6478 28.6481 22.7104 28.6841C22.9157 28.8157 23.124 28.9442 23.334 29.0664C23.3653 29.0852 23.3935 29.0993 23.4233 29.1181C23.605 29.2215 23.7899 29.3264 23.9763 29.4267C24.0405 29.4627 24.1079 29.4941 24.1721 29.527C24.3006 29.5943 24.4291 29.6617 24.5591 29.7291C24.5795 29.7385 24.5967 29.7479 24.6171 29.7541C24.8818 29.8857 25.1497 30.0111 25.4239 30.1301C25.4819 30.1552 25.5414 30.1787 25.6009 30.2038C25.8187 30.2962 26.0396 30.3871 26.2621 30.4701C26.3561 30.5061 26.4501 30.5406 26.5441 30.5735C26.7462 30.6503 26.9483 30.7176 27.1519 30.785C27.2444 30.8163 27.3337 30.8461 27.4261 30.8743C27.7159 30.9636 28.0011 31.0795 28.3034 31.1281C43.8416 33.7021 47.4277 21.7422 47.4277 21.7422C44.1941 26.3952 37.9322 28.6199 31.2519 26.884C30.9558 26.8041 30.6613 26.7211 30.3699 26.6302C30.2806 26.602 30.196 26.5722 30.1067 26.544C29.8983 26.4767 29.6931 26.4062 29.4894 26.3294C29.3954 26.2965 29.3045 26.262 29.2121 26.2291C28.9881 26.143 28.7687 26.0552 28.5478 25.9597C28.4899 25.9346 28.4288 25.9111 28.3708 25.886C28.0951 25.767 27.8256 25.6385 27.5593 25.5069C27.4214 25.4427 27.2867 25.3722 27.1519 25.3017C27.0752 25.2625 26.9953 25.2186 26.9185 25.1795C26.7462 25.087 26.5738 24.9899 26.4046 24.8928C26.3639 24.8677 26.3216 24.8473 26.2809 24.8238C26.0709 24.7016 25.8641 24.5732 25.6605 24.4447C25.5962 24.4024 25.5351 24.3585 25.4709 24.3194C25.3362 24.2301 25.2014 24.1423 25.0683 24.0499C24.7816 23.8541 24.5043 23.6457 24.2285 23.4373C24.1643 23.3856 24.1016 23.3371 24.039 23.2869C21.114 20.9761 18.7953 17.8224 17.6924 14.2426C16.5393 10.5311 16.7869 6.36694 18.7875 2.9845" fill="white"/>
<path d="M27.1895 2.69154C25.4161 5.3016 25.2422 8.5446 26.4736 11.4273C27.7708 14.4901 30.431 16.8887 33.5361 18.0276C33.6646 18.0762 33.793 18.1201 33.9215 18.1624C33.9795 18.1812 34.0343 18.1984 34.0923 18.2172C34.274 18.272 34.4557 18.3394 34.6469 18.377C43.2259 20.0361 45.5509 13.9731 46.1713 13.0801C44.1299 16.0176 40.7083 16.721 36.5034 15.6996C36.1712 15.6197 35.8062 15.5006 35.4882 15.3878C35.0761 15.2405 34.6719 15.0729 34.2803 14.8865C33.533 14.5277 32.8217 14.0937 32.1621 13.5955C28.4021 10.7411 26.0631 5.2969 28.5181 0.863235" fill="white"/>
</g>
<defs>
<clipPath id="clip0_25_143">
<rect width="47" height="47" fill="white"/>
</clipPath>
</defs>
</svg>
