<svg width="67" height="67" viewBox="0 0 67 67" fill="none" xmlns="http://www.w3.org/2000/svg">
<g clip-path="url(#clip0_232_167)">
<mask id="mask0_232_167" style="mask-type:luminance" maskUnits="userSpaceOnUse" x="0" y="0" width="67" height="67">
<path d="M67 0H0V67H67V0Z" fill="white"/>
</mask>
<g mask="url(#mask0_232_167)">
<path d="M33.471 0C14.9696 0.0160153 -0.0160025 15.0274 1.28249e-05 33.529C0.0160281 52.0306 15.0274 67.016 33.529 67C52.0192 66.984 67 51.9903 67 33.5001C66.9681 15.0004 51.9707 0.0158796 33.471 0ZM47.2244 30.1702L47.1955 30.1992L34.1661 53.7678C33.9279 54.2175 33.4588 54.4967 32.95 54.4916H32.5446C31.9333 54.2959 31.5295 53.7141 31.5602 53.0729L32.2262 39.0301H20.934C20.4507 39.0248 20.0034 38.7739 19.7469 38.3641C19.4925 37.9358 19.4925 37.4026 19.7469 36.9743L32.7763 13.2319C33.0895 12.6515 33.7613 12.3637 34.3977 12.537C35.0029 12.741 35.4029 13.3174 35.3821 13.9557L34.7451 27.9987H46.0372C46.5375 27.9979 46.996 28.2775 47.2244 28.7225C47.5251 29.1583 47.5251 29.7346 47.2244 30.1702Z" fill="#8750F7"/>
</g>
</g>
<defs>
<clipPath id="clip0_232_167">
<rect width="67" height="67" fill="white"/>
</clipPath>
</defs>
</svg>
