<svg width="50" height="47" viewBox="0 0 50 47" fill="none" xmlns="http://www.w3.org/2000/svg">
<g clip-path="url(#clip0_25_141)">
<path d="M34.28 32.6937C36.1057 32.5054 37.4908 30.9368 37.4278 29.0542C37.365 27.1719 35.7909 25.6659 33.9022 25.6659H33.7764C31.8245 25.7287 30.3136 27.3601 30.3766 29.3052C30.4396 30.2465 30.8173 31.0622 31.3839 31.6269C29.2434 35.8311 25.9696 38.9057 21.059 41.4784C17.7222 43.2354 14.2596 43.8629 10.797 43.4237C7.96391 43.0472 5.7604 41.7923 4.37513 39.7214C2.36063 36.6468 2.17182 33.3211 3.8717 29.9955C5.06796 27.611 6.95646 25.8541 8.15272 24.9756C7.90091 24.1599 7.52309 22.7795 7.33428 21.7756C-1.79458 28.3641 -0.850138 37.2743 1.92 41.4784C3.99751 44.616 8.21572 46.5611 12.8746 46.5611C14.1336 46.5611 15.3927 46.4355 16.6519 46.122C24.7106 44.5532 30.8175 39.7842 34.28 32.6937ZM45.3606 24.913C40.5758 19.3283 33.5246 16.2537 25.466 16.2537H24.4587C23.8921 15.1243 22.6959 14.3712 21.3738 14.3712H21.2478C19.2963 14.4339 17.7854 16.0653 17.8482 18.0107C17.9112 19.893 19.4851 21.399 21.3738 21.399H21.4996C22.8847 21.3362 24.0809 20.4578 24.5845 19.2655H25.7178C30.5026 19.2655 35.0355 20.6459 39.1279 23.3442C42.2756 25.4149 44.5422 28.1131 45.8012 31.3759C46.8715 34.0114 46.8085 36.584 45.6752 38.7803C43.9125 42.1059 40.9536 43.9257 37.0502 43.9257C34.5319 43.9257 32.1395 43.1726 30.8803 42.6078C30.1878 43.2354 28.9286 44.2392 28.0471 44.8669C30.7545 46.1218 33.5246 46.8121 36.1687 46.8121C42.2126 46.8121 46.6827 43.4863 48.3825 40.1608C50.2082 36.5212 50.0822 30.2465 45.3606 24.913ZM13.3782 33.7602C13.4412 35.6428 15.0151 37.1486 16.9038 37.1486H17.0298C18.9815 37.086 20.4923 35.4544 20.4293 33.5092C20.3665 31.6267 18.7925 30.1209 16.9038 30.1209H16.778C16.6519 30.1209 16.4629 30.1209 16.3373 30.1835C13.756 25.9166 12.6857 21.2735 13.0636 16.2535C13.3152 12.4886 14.5744 9.22564 16.778 6.5274C18.6036 4.20571 22.1292 3.07625 24.5217 3.01366C31.1951 2.88808 34.028 11.1708 34.217 14.4965C35.0355 14.6847 36.4205 15.1241 37.365 15.4378C36.6094 5.27275 30.3136 0.00184822 24.2699 0.00184822C18.6036 0.00184822 13.3782 4.08051 11.3005 10.1043C8.40453 18.1361 10.2932 25.8541 13.8188 31.9406C13.5042 32.3798 13.3152 33.0699 13.3782 33.7602Z" fill="white"/>
</g>
<defs>
<clipPath id="clip0_25_141">
<rect width="49.4737" height="47" fill="white"/>
</clipPath>
</defs>
</svg>
