<svg width="42" height="46" viewBox="0 0 42 46" fill="none" xmlns="http://www.w3.org/2000/svg">
<circle cx="31" cy="11" r="11" fill="#8750F7"/>
<path d="M34.3152 15.6218C35.6432 14.327 34.9106 12.0681 33.0761 11.7994L25.8827 10.7408C25.5985 10.6987 25.353 10.5201 25.226 10.2633L22.0101 3.74469C21.188 2.07862 18.8117 2.07922 17.9898 3.74469L14.7726 10.2633C14.6462 10.5201 14.4014 10.6987 14.1179 10.7408L6.92382 11.7994C5.08888 12.0681 4.35695 14.3272 5.68469 15.6218L10.89 20.698C11.096 20.8986 11.1903 21.1875 11.1415 21.4704L9.91238 28.6076C9.59519 30.4413 11.5236 31.8327 13.161 30.9742L17.5487 28.6773C17.4081 31.8743 16.9642 34.9448 14.9518 37.6373H14.0657C12.5551 37.6373 11.3267 38.8658 11.3267 40.3764V44.1352H9.43826C9.0598 44.1352 8.75351 44.4415 8.75351 44.82C8.75351 45.1984 9.0598 45.5047 9.43826 45.5047H30.5617C30.9402 45.5047 31.2465 45.1984 31.2465 44.82C31.2465 44.4415 30.9402 44.1352 30.5617 44.1352H28.6732V40.3764C28.6732 38.8658 27.4448 37.6373 25.9341 37.6373H25.0481C23.0356 34.9448 22.5918 31.8743 22.4512 28.6773L26.8389 30.9742C28.4821 31.8371 30.4039 30.4364 30.0875 28.6076L28.859 21.4704C28.8102 21.1875 28.9038 20.8987 29.1098 20.698L34.3152 15.6218ZM27.3037 40.3764V44.1352H12.6962V40.3764C12.6962 39.6214 13.3108 39.0069 14.0657 39.0069H25.9341C26.6892 39.0068 27.3037 39.6214 27.3037 40.3764ZM23.3784 37.6373H16.6216C18.5249 34.6335 18.8409 31.3388 18.9472 27.9452L19.5954 27.6059C19.8481 27.4735 20.1517 27.4735 20.4046 27.6059L21.0527 27.9452C21.159 31.3388 21.4751 34.6335 23.3784 37.6373ZM27.5097 21.7031L28.7382 28.8403C28.8605 29.5515 28.121 30.0966 27.4743 29.7611L21.0392 26.3928C20.3886 26.0517 19.6109 26.0517 18.9602 26.3928L12.5258 29.7611C11.8806 30.0973 11.1396 29.5518 11.2619 28.8403L12.491 21.7031C12.6161 20.9749 12.3753 20.2333 11.8464 19.7177L6.641 14.6415C6.12305 14.1363 6.40751 13.2598 7.12311 13.1542L14.3179 12.0957C15.0468 11.988 15.676 11.5293 16.0011 10.8693L19.2176 4.35063C19.5387 3.70138 20.461 3.70077 20.7824 4.35063L23.9983 10.8699C24.3246 11.5293 24.9539 11.9881 25.6828 12.0957L32.8769 13.1542C33.5928 13.2598 33.8767 14.1365 33.359 14.6415L28.1536 19.7177C27.6254 20.2326 27.3846 20.9749 27.5097 21.7031Z" fill="#8750F7"/>
<path d="M22.7035 40.8867H17.2963C16.9179 40.8867 16.6116 41.193 16.6116 41.5715C16.6116 41.9499 16.9179 42.2562 17.2963 42.2562H22.7036C23.0821 42.2562 23.3883 41.9499 23.3883 41.5715C23.3883 41.193 23.0821 40.8867 22.7035 40.8867Z" fill="#8750F7"/>
<path d="M36.6644 10.1069L35.8914 11.1153C35.6614 11.4155 35.7189 11.8449 36.0191 12.0748C36.3182 12.3044 36.7495 12.2482 36.9787 11.9471L37.7517 10.9388C37.9818 10.6385 37.9243 10.2091 37.624 9.97917C37.3252 9.74972 36.8932 9.80661 36.6644 10.1069Z" fill="#8750F7"/>
<path d="M36.9393 13.946C36.9393 14.3244 37.2456 14.6307 37.6241 14.6307H38.894C39.2724 14.6307 39.5787 14.3244 39.5787 13.946C39.5787 13.5675 39.2724 13.2612 38.894 13.2612H37.6241C37.2456 13.2612 36.9393 13.5675 36.9393 13.946Z" fill="#8750F7"/>
<path d="M35.8914 16.7759L36.6644 17.7843C36.8935 18.0851 37.3247 18.1417 37.624 17.912C37.9242 17.6819 37.9817 17.2526 37.7517 16.9524L36.9787 15.944C36.75 15.6437 36.3187 15.5869 36.0191 15.8163C35.7189 16.0464 35.6613 16.4756 35.8914 16.7759Z" fill="#8750F7"/>
<path d="M4.10864 11.1152L3.33563 10.1068C3.10695 9.80658 2.67623 9.74977 2.37606 9.97914C2.07579 10.2092 2.0183 10.6385 2.24835 10.9387L3.02136 11.9471C3.25047 12.248 3.6817 12.3045 3.98094 12.0748C4.28112 11.8448 4.3387 11.4155 4.10864 11.1152Z" fill="#8750F7"/>
<path d="M0.421265 13.946C0.421265 14.3244 0.727546 14.6307 1.10601 14.6307H2.37591C2.75438 14.6307 3.06066 14.3244 3.06066 13.946C3.06066 13.5675 2.75438 13.2612 2.37591 13.2612H1.10601C0.727546 13.2612 0.421265 13.5675 0.421265 13.946Z" fill="#8750F7"/>
<path d="M3.02124 15.944L2.24823 16.9524C2.01818 17.2527 2.07567 17.682 2.37593 17.912C2.675 18.1415 3.10632 18.0853 3.33551 17.7843L4.10852 16.7759C4.33857 16.4756 4.28108 16.0463 3.98082 15.8163C3.68261 15.5869 3.25061 15.6437 3.02124 15.944Z" fill="#8750F7"/>
</svg>
